<svg xmlns="http://www.w3.org/2000/svg" xmlns:xlink="http://www.w3.org/1999/xlink" fill="none" version="1.1" width="24" height="24" viewBox="0 0 24 24"><defs><clipPath id="master_svg0_954_09321"><rect x="0" y="0" width="24" height="24" rx="0"/></clipPath></defs><g clip-path="url(#master_svg0_954_09321)"><g><path d="M10.14251,13.5145C10.42666,13.9881,11.04092,14.1416,11.5145,13.8575C11.98808,13.5733,12.1416,12.9591,11.85749,12.4855C11.85749,12.4855,10.14251,13.5145,10.14251,13.5145C10.14251,13.5145,10.14251,13.5145,10.14251,13.5145ZM8.85749,7.4855C8.57334,7.01192,7.95908,6.85836,7.4855,7.14251C7.01192,7.42666,6.85836,8.04092,7.14251,8.5145C7.14251,8.5145,8.85749,7.4855,8.85749,7.4855C8.85749,7.4855,8.85749,7.4855,8.85749,7.4855ZM16,7C15.4477,7,15,7.44772,15,8C15,8.55228,15.4477,9,16,9C16,9,16,7,16,7C16,7,16,7,16,7ZM16.009999999999998,9C16.5623,9,17.009999999999998,8.55228,17.009999999999998,8C17.009999999999998,7.44772,16.5623,7,16.009999999999998,7C16.009999999999998,7,16.009999999999998,9,16.009999999999998,9C16.009999999999998,9,16.009999999999998,9,16.009999999999998,9ZM12,5C11.44771,5,11,5.44772,11,6C11,6.55228,11.44771,7,12,7C12,7,12,5,12,5C12,5,12,5,12,5ZM12.01,7C12.5623,7,13.01,6.55228,13.01,6C13.01,5.44772,12.5623,5,12.01,5C12.01,5,12.01,7,12.01,7C12.01,7,12.01,7,12.01,7ZM18,11C17.447699999999998,11,17,11.44771,17,12C17,12.5523,17.447699999999998,13,18,13C18,13,18,11,18,11C18,11,18,11,18,11ZM18.01,13C18.5623,13,19.01,12.5523,19.01,12C19.01,11.44771,18.5623,11,18.01,11C18.01,11,18.01,13,18.01,13C18.01,13,18.01,13,18.01,13ZM6,11C5.44772,11,5,11.44771,5,12C5,12.5523,5.44772,13,6,13C6,13,6,11,6,11C6,11,6,11,6,11ZM6.01,13C6.56228,13,7.01,12.5523,7.01,12C7.01,11.44771,6.56228,11,6.01,11C6.01,11,6.01,13,6.01,13C6.01,13,6.01,13,6.01,13ZM13,15C13,15.5523,12.5523,16,12,16C12,16,12,18,12,18C13.6569,18,15,16.6569,15,15C15,15,13,15,13,15C13,15,13,15,13,15ZM12,16C11.44771,16,11,15.5523,11,15C11,15,9,15,9,15C9,16.6569,10.34315,18,12,18C12,18,12,16,12,16C12,16,12,16,12,16ZM11,15C11,14.4477,11.44771,14,12,14C12,14,12,12,12,12C10.34315,12,9,13.3431,9,15C9,15,11,15,11,15C11,15,11,15,11,15ZM12,14C12.5523,14,13,14.4477,13,15C13,15,15,15,15,15C15,13.3431,13.6569,12,12,12C12,12,12,14,12,14C12,14,12,14,12,14ZM20,12C20,16.418300000000002,16.418300000000002,20,12,20C12,20,12,22,12,22C17.5228,22,22,17.5228,22,12C22,12,20,12,20,12C20,12,20,12,20,12ZM12,20C7.58172,20,4,16.418300000000002,4,12C4,12,2,12,2,12C2,17.5228,6.47715,22,12,22C12,22,12,20,12,20C12,20,12,20,12,20ZM4,12C4,7.58172,7.58172,4,12,4C12,4,12,2,12,2C6.47715,2,2,6.47715,2,12C2,12,4,12,4,12C4,12,4,12,4,12ZM12,4C16.418300000000002,4,20,7.58172,20,12C20,12,22,12,22,12C22,6.47715,17.5228,2,12,2C12,2,12,4,12,4C12,4,12,4,12,4ZM11.85749,12.4855C11.85749,12.4855,8.85749,7.4855,8.85749,7.4855C8.85749,7.4855,7.14251,8.5145,7.14251,8.5145C7.14251,8.5145,10.14251,13.5145,10.14251,13.5145C10.14251,13.5145,11.85749,12.4855,11.85749,12.4855C11.85749,12.4855,11.85749,12.4855,11.85749,12.4855ZM16,9C16,9,16.009999999999998,9,16.009999999999998,9C16.009999999999998,9,16.009999999999998,7,16.009999999999998,7C16.009999999999998,7,16,7,16,7C16,7,16,9,16,9C16,9,16,9,16,9ZM12,7C12,7,12.01,7,12.01,7C12.01,7,12.01,5,12.01,5C12.01,5,12,5,12,5C12,5,12,7,12,7C12,7,12,7,12,7ZM18,13C18,13,18.01,13,18.01,13C18.01,13,18.01,11,18.01,11C18.01,11,18,11,18,11C18,11,18,13,18,13C18,13,18,13,18,13ZM6,13C6,13,6.01,13,6.01,13C6.01,13,6.01,11,6.01,11C6.01,11,6,11,6,11C6,11,6,13,6,13C6,13,6,13,6,13Z" fill="#FFFFFF" fill-opacity="1"/></g></g></svg>