<svg xmlns="http://www.w3.org/2000/svg" xmlns:xlink="http://www.w3.org/1999/xlink" fill="none" version="1.1" width="24" height="24" viewBox="0 0 24 24"><defs><clipPath id="master_svg0_954_09231"><rect x="0" y="0" width="24" height="24" rx="0"/></clipPath></defs><g clip-path="url(#master_svg0_954_09231)"><g><path d="M11,16.5C11,17.052300000000002,11.4477,17.5,12,17.5C12.5523,17.5,13,17.052300000000002,13,16.5C13,16.5,11,16.5,11,16.5C11,16.5,11,16.5,11,16.5ZM17.0161,11.20225C17.548,11.05363,17.8587,10.501940000000001,17.7101,9.970030000000001C17.5615,9.43812,17.0098,9.1274,16.477899999999998,9.27603C16.477899999999998,9.27603,17.0161,11.20225,17.0161,11.20225C17.0161,11.20225,17.0161,11.20225,17.0161,11.20225ZM2,9C1.447715,9,1,9.44772,1,10C1,10.55228,1.447715,11,2,11C2,11,2,9,2,9C2,9,2,9,2,9ZM5.5,15.5C4.94772,15.5,4.5,15.9477,4.5,16.5C4.5,17.052300000000002,4.94772,17.5,5.5,17.5C5.5,17.5,5.5,15.5,5.5,15.5C5.5,15.5,5.5,15.5,5.5,15.5ZM5.51,17.5C6.06228,17.5,6.51,17.052300000000002,6.51,16.5C6.51,15.9477,6.06228,15.5,5.51,15.5C5.51,15.5,5.51,17.5,5.51,17.5C5.51,17.5,5.51,17.5,5.51,17.5ZM17.537,16.7696C17.6859,17.3015,18.2378,17.6119,18.7696,17.463C19.3015,17.3141,19.6119,16.7622,19.463,16.2304C19.463,16.2304,17.537,16.7696,17.537,16.7696C17.537,16.7696,17.537,16.7696,17.537,16.7696ZM15,4C15,4,15.963,3.7303699999999997,15.963,3.7303699999999997C15.8421,3.298536,15.4484,3,15,3C15,3,15,4,15,4C15,4,15,4,15,4ZM13,3C12.4477,3,12,3.447715,12,4C12,4.55228,12.4477,5,13,5C13,5,13,3,13,3C13,3,13,3,13,3ZM15.5625,5C15.0102,5,14.5625,5.44772,14.5625,6C14.5625,6.55228,15.0102,7,15.5625,7C15.5625,7,15.5625,5,15.5625,5C15.5625,5,15.5625,5,15.5625,5ZM19,7C19.5523,7,20,6.55228,20,6C20,5.44772,19.5523,5,19,5C19,5,19,7,19,7C19,7,19,7,19,7ZM20,5C20,4.44772,19.5523,4,19,4C18.4477,4,18,4.44772,18,5C18,5,20,5,20,5C20,5,20,5,20,5ZM18,7C18,7.55228,18.4477,8,19,8C19.5523,8,20,7.55228,20,7C20,7,18,7,18,7C18,7,18,7,18,7ZM16.1097,6.792619999999999C16.5475,6.45589,16.6294,5.82804,16.2926,5.39029C15.9559,4.95254,15.328,4.87064,14.8903,5.207380000000001C14.8903,5.207380000000001,16.1097,6.792619999999999,16.1097,6.792619999999999C16.1097,6.792619999999999,16.1097,6.792619999999999,16.1097,6.792619999999999ZM8.39029,10.20738C7.95254,10.54411,7.87064,11.17196,8.20738,11.60971C8.54411,12.04747,9.17196,12.12936,9.60971,11.79262C9.60971,11.79262,8.39029,10.20738,8.39029,10.20738C8.39029,10.20738,8.39029,10.20738,8.39029,10.20738ZM21,16.5C21,17.880699999999997,19.8807,19,18.5,19C18.5,19,18.5,21,18.5,21C20.9853,21,23,18.985300000000002,23,16.5C23,16.5,21,16.5,21,16.5C21,16.5,21,16.5,21,16.5ZM18.5,19C17.1193,19,16,17.880699999999997,16,16.5C16,16.5,14,16.5,14,16.5C14,18.985300000000002,16.014699999999998,21,18.5,21C18.5,21,18.5,19,18.5,19C18.5,19,18.5,19,18.5,19ZM16,16.5C16,15.1193,17.1193,14,18.5,14C18.5,14,18.5,12,18.5,12C16.014699999999998,12,14,14.0147,14,16.5C14,16.5,16,16.5,16,16.5C16,16.5,16,16.5,16,16.5ZM18.5,14C19.8807,14,21,15.1193,21,16.5C21,16.5,23,16.5,23,16.5C23,14.0147,20.9853,12,18.5,12C18.5,12,18.5,14,18.5,14C18.5,14,18.5,14,18.5,14ZM13,16.5C13,13.9778,14.6986,11.84979,17.0161,11.20225C17.0161,11.20225,16.477899999999998,9.27603,16.477899999999998,9.27603C13.3188,10.158719999999999,11,13.0573,11,16.5C11,16.5,13,16.5,13,16.5C13,16.5,13,16.5,13,16.5ZM5.5,11C8.537569999999999,11,11,13.4624,11,16.5C11,16.5,13,16.5,13,16.5C13,12.35786,9.64214,9,5.5,9C5.5,9,5.5,11,5.5,11C5.5,11,5.5,11,5.5,11ZM5.5,9C5.5,9,2,9,2,9C2,9,2,11,2,11C2,11,5.5,11,5.5,11C5.5,11,5.5,9,5.5,9C5.5,9,5.5,9,5.5,9ZM8,16.5C8,17.880699999999997,6.88071,19,5.5,19C5.5,19,5.5,21,5.5,21C7.98528,21,10,18.985300000000002,10,16.5C10,16.5,8,16.5,8,16.5C8,16.5,8,16.5,8,16.5ZM5.5,19C4.1192899999999995,19,3,17.880699999999997,3,16.5C3,16.5,1,16.5,1,16.5C1,18.985300000000002,3.01472,21,5.5,21C5.5,21,5.5,19,5.5,19C5.5,19,5.5,19,5.5,19ZM3,16.5C3,15.1193,4.1192899999999995,14,5.5,14C5.5,14,5.5,12,5.5,12C3.01472,12,1,14.0147,1,16.5C1,16.5,3,16.5,3,16.5C3,16.5,3,16.5,3,16.5ZM5.5,14C6.88071,14,8,15.1193,8,16.5C8,16.5,10,16.5,10,16.5C10,14.0147,7.98528,12,5.5,12C5.5,12,5.5,14,5.5,14C5.5,14,5.5,14,5.5,14ZM5.5,17.5C5.5,17.5,5.51,17.5,5.51,17.5C5.51,17.5,5.51,15.5,5.51,15.5C5.51,15.5,5.5,15.5,5.5,15.5C5.5,15.5,5.5,17.5,5.5,17.5C5.5,17.5,5.5,17.5,5.5,17.5ZM5,16.5C5,16.2239,5.22386,16,5.5,16C5.5,16,5.5,18,5.5,18C6.32843,18,7,17.328400000000002,7,16.5C7,16.5,5,16.5,5,16.5C5,16.5,5,16.5,5,16.5ZM5.5,16C5.77614,16,6,16.2239,6,16.5C6,16.5,4,16.5,4,16.5C4,17.328400000000002,4.67157,18,5.5,18C5.5,18,5.5,16,5.5,16C5.5,16,5.5,16,5.5,16ZM6,16.5C6,16.7761,5.77614,17,5.5,17C5.5,17,5.5,15,5.5,15C4.67157,15,4,15.6716,4,16.5C4,16.5,6,16.5,6,16.5C6,16.5,6,16.5,6,16.5ZM5.5,17C5.22386,17,5,16.7761,5,16.5C5,16.5,7,16.5,7,16.5C7,15.6716,6.32843,15,5.5,15C5.5,15,5.5,17,5.5,17C5.5,17,5.5,17,5.5,17ZM19.463,16.2304C19.463,16.2304,15.963,3.7303699999999997,15.963,3.7303699999999997C15.963,3.7303699999999997,14.037,4.26963,14.037,4.26963C14.037,4.26963,17.537,16.7696,17.537,16.7696C17.537,16.7696,19.463,16.2304,19.463,16.2304C19.463,16.2304,19.463,16.2304,19.463,16.2304ZM15,3C15,3,13,3,13,3C13,3,13,5,13,5C13,5,15,5,15,5C15,5,15,3,15,3C15,3,15,3,15,3ZM15.5625,7C15.5625,7,19,7,19,7C19,7,19,5,19,5C19,5,15.5625,5,15.5625,5C15.5625,5,15.5625,7,15.5625,7C15.5625,7,15.5625,7,15.5625,7ZM18,5C18,5,18,7,18,7C18,7,20,7,20,7C20,7,20,5,20,5C20,5,18,5,18,5C18,5,18,5,18,5ZM14.8903,5.207380000000001C14.8903,5.207380000000001,8.39029,10.20738,8.39029,10.20738C8.39029,10.20738,9.60971,11.79262,9.60971,11.79262C9.60971,11.79262,16.1097,6.792619999999999,16.1097,6.792619999999999C16.1097,6.792619999999999,14.8903,5.207380000000001,14.8903,5.207380000000001C14.8903,5.207380000000001,14.8903,5.207380000000001,14.8903,5.207380000000001Z" fill="#FFFFFF" fill-opacity="1"/></g></g></svg>