<svg xmlns="http://www.w3.org/2000/svg" xmlns:xlink="http://www.w3.org/1999/xlink" fill="none" version="1.1" width="24" height="24" viewBox="0 0 24 24"><defs><clipPath id="master_svg0_954_09273"><rect x="0" y="0" width="24" height="24" rx="0"/></clipPath></defs><g clip-path="url(#master_svg0_954_09273)"><g><path d="M8,7.999999523162842C7.44772,7.999999523162842,7,8.447719523162842,7,8.999999523162842C7,9.552279523162841,7.44772,9.999999523162842,8,9.999999523162842C8,9.999999523162842,8,7.999999523162842,8,7.999999523162842C8,7.999999523162842,8,7.999999523162842,8,7.999999523162842ZM16,9.999999523162842C16.552300000000002,9.999999523162842,17,9.552279523162841,17,8.999999523162842C17,8.447719523162842,16.552300000000002,7.999999523162842,16,7.999999523162842C16,7.999999523162842,16,9.999999523162842,16,9.999999523162842C16,9.999999523162842,16,9.999999523162842,16,9.999999523162842ZM13,12.999999523162842C13,12.447699523162841,12.55228,11.999999523162842,12,11.999999523162842C11.44772,11.999999523162842,11,12.447699523162841,11,12.999999523162842C11,12.999999523162842,13,12.999999523162842,13,12.999999523162842C13,12.999999523162842,13,12.999999523162842,13,12.999999523162842ZM11,19.999999523162842C11,20.55229952316284,11.44772,20.999999523162842,12,20.999999523162842C12.55228,20.999999523162842,13,20.55229952316284,13,19.999999523162842C13,19.999999523162842,11,19.999999523162842,11,19.999999523162842C11,19.999999523162842,11,19.999999523162842,11,19.999999523162842ZM8,7.695909523162841C8,7.695909523162841,7.23874,7.0474695231628415,7.23874,7.0474695231628415C7.08464,7.228379523162841,7,7.458259523162842,7,7.695909523162841C7,7.695909523162841,8,7.695909523162841,8,7.695909523162841C8,7.695909523162841,8,7.695909523162841,8,7.695909523162841ZM16,7.695909523162841C16,7.695909523162841,17,7.695909523162841,17,7.695909523162841C17,7.462099523162842,16.918100000000003,7.235679523162842,16.7685,7.0560095231628415C16.7685,7.0560095231628415,16,7.695909523162841,16,7.695909523162841C16,7.695909523162841,16,7.695909523162841,16,7.695909523162841ZM12,2.999999523162842C12,2.999999523162842,12.75377,2.3428645231628416,12.75377,2.3428645231628416C12.56255,2.123516523162842,12.285260000000001,1.9983499431628418,11.99426,2.0000159450628416C11.70327,2.0016859431628418,11.42744,2.1300275231628416,11.23874,2.351553523162842C11.23874,2.351553523162842,12,2.999999523162842,12,2.999999523162842C12,2.999999523162842,12,2.999999523162842,12,2.999999523162842ZM14,5.294119523162841C14,5.294119523162841,14.76846,4.654219523162842,14.76846,4.654219523162842C14.76363,4.648419523162842,14.75873,4.642669523162842,14.75377,4.636979523162841C14.75377,4.636979523162841,14,5.294119523162841,14,5.294119523162841C14,5.294119523162841,14,5.294119523162841,14,5.294119523162841ZM16.8,12.399999523162842C16.468600000000002,11.958169523162843,15.8418,11.868629523162841,15.4,12.199999523162841C14.95817,12.531399523162841,14.86863,13.158199523162843,15.2,13.599999523162841C15.2,13.599999523162841,16.8,12.399999523162842,16.8,12.399999523162842C16.8,12.399999523162842,16.8,12.399999523162842,16.8,12.399999523162842ZM18,15.666699523162842C18,15.666699523162842,19,15.666699523162842,19,15.666699523162842C19,15.450299523162842,18.9298,15.239799523162842,18.8,15.066699523162843C18.8,15.066699523162843,18,15.666699523162842,18,15.666699523162842C18,15.666699523162842,18,15.666699523162842,18,15.666699523162842ZM18,20.999999523162842C18,20.999999523162842,17.256700000000002,21.668999523162842,17.256700000000002,21.668999523162842C17.5337,21.976699523162843,17.9717,22.081999523162843,18.3583,21.93359952316284C18.744799999999998,21.78529952316284,19,21.414099523162843,19,20.999999523162842C19,20.999999523162842,18,20.999999523162842,18,20.999999523162842C18,20.999999523162842,18,20.999999523162842,18,20.999999523162842ZM14.74329,15.886599523162841C14.37384,15.476099523162842,13.74155,15.442799523162842,13.33104,15.812299523162842C12.92053,16.18169952316284,12.88725,16.813999523162842,13.25671,17.22449952316284C13.25671,17.22449952316284,14.74329,15.886599523162841,14.74329,15.886599523162841C14.74329,15.886599523162841,14.74329,15.886599523162841,14.74329,15.886599523162841ZM8.8,13.599999523162841C9.13137,13.158199523162843,9.041830000000001,12.531399523162841,8.6,12.199999523162841C8.15817,11.868629523162841,7.53137,11.958169523162843,7.2,12.399999523162842C7.2,12.399999523162842,8.8,13.599999523162841,8.8,13.599999523162841C8.8,13.599999523162841,8.8,13.599999523162841,8.8,13.599999523162841ZM6,15.666699523162842C6,15.666699523162842,5.2,15.066699523162843,5.2,15.066699523162843C5.070178,15.239799523162842,5,15.450299523162842,5,15.666699523162842C5,15.666699523162842,6,15.666699523162842,6,15.666699523162842C6,15.666699523162842,6,15.666699523162842,6,15.666699523162842ZM6,20.999999523162842C6,20.999999523162842,5,20.999999523162842,5,20.999999523162842C5,21.414099523162843,5.255169,21.78529952316284,5.641736,21.93359952316284C6.0283,22.081999523162843,6.46631,21.976699523162843,6.74329,21.668999523162842C6.74329,21.668999523162842,6,20.999999523162842,6,20.999999523162842C6,20.999999523162842,6,20.999999523162842,6,20.999999523162842ZM10.74329,17.22449952316284C11.11275,16.813999523162842,11.07947,16.18169952316284,10.66896,15.812299523162842C10.25845,15.442799523162842,9.626159999999999,15.476099523162842,9.25671,15.886599523162841C9.25671,15.886599523162841,10.74329,17.22449952316284,10.74329,17.22449952316284C10.74329,17.22449952316284,10.74329,17.22449952316284,10.74329,17.22449952316284ZM8,9.999999523162842C8,9.999999523162842,16,9.999999523162842,16,9.999999523162842C16,9.999999523162842,16,7.999999523162842,16,7.999999523162842C16,7.999999523162842,8,7.999999523162842,8,7.999999523162842C8,7.999999523162842,8,9.999999523162842,8,9.999999523162842C8,9.999999523162842,8,9.999999523162842,8,9.999999523162842ZM11,12.999999523162842C11,12.999999523162842,11,19.999999523162842,11,19.999999523162842C11,19.999999523162842,13,19.999999523162842,13,19.999999523162842C13,19.999999523162842,13,12.999999523162842,13,12.999999523162842C13,12.999999523162842,11,12.999999523162842,11,12.999999523162842C11,12.999999523162842,11,12.999999523162842,11,12.999999523162842ZM9,14.339199523162842C9,14.339199523162842,9,7.695909523162841,9,7.695909523162841C9,7.695909523162841,7,7.695909523162841,7,7.695909523162841C7,7.695909523162841,7,14.339199523162842,7,14.339199523162842C7,14.339199523162842,9,14.339199523162842,9,14.339199523162842C9,14.339199523162842,9,14.339199523162842,9,14.339199523162842ZM15,7.695909523162841C15,7.695909523162841,15,14.339199523162842,15,14.339199523162842C15,14.339199523162842,17,14.339199523162842,17,14.339199523162842C17,14.339199523162842,17,7.695909523162841,17,7.695909523162841C17,7.695909523162841,15,7.695909523162841,15,7.695909523162841C15,7.695909523162841,15,7.695909523162841,15,7.695909523162841ZM12,14.999999523162842C10.99407,14.999999523162842,10.13022,14.828799523162841,9.55504,14.589999523162842C9.26521,14.469699523162841,9.096119999999999,14.351799523162843,9.01487,14.271999523162842C8.93704,14.195599523162842,9,14.218899523162841,9,14.339199523162842C9,14.339199523162842,7,14.339199523162842,7,14.339199523162842C7,14.918099523162843,7.2868200000000005,15.378299523162841,7.61381,15.699299523162841C7.93738,16.01689952316284,8.35408,16.256899523162843,8.78811,16.437099523162843C9.66064,16.79939952316284,10.79679,16.999999523162842,12,16.999999523162842C12,16.999999523162842,12,14.999999523162842,12,14.999999523162842C12,14.999999523162842,12,14.999999523162842,12,14.999999523162842ZM12,16.999999523162842C13.20321,16.999999523162842,14.33936,16.79939952316284,15.2119,16.437099523162843C15.6459,16.256899523162843,16.0626,16.01689952316284,16.386200000000002,15.699299523162841C16.7132,15.378299523162841,17,14.918099523162843,17,14.339199523162842C17,14.339199523162842,15,14.339199523162842,15,14.339199523162842C15,14.218899523162841,15.063,14.195599523162842,14.98513,14.271999523162842C14.90388,14.351799523162843,14.73479,14.469699523162841,14.44496,14.589999523162842C13.86978,14.828799523162841,13.00593,14.999999523162842,12,14.999999523162842C12,14.999999523162842,12,16.999999523162842,12,16.999999523162842C12,16.999999523162842,12,16.999999523162842,12,16.999999523162842ZM8.76126,8.344359523162842C8.76126,8.344359523162842,12.76126,3.6484495231628418,12.76126,3.6484495231628418C12.76126,3.6484495231628418,11.23874,2.351553523162842,11.23874,2.351553523162842C11.23874,2.351553523162842,7.23874,7.0474695231628415,7.23874,7.0474695231628415C7.23874,7.0474695231628415,8.76126,8.344359523162842,8.76126,8.344359523162842C8.76126,8.344359523162842,8.76126,8.344359523162842,8.76126,8.344359523162842ZM11.24623,3.657139523162842C11.24623,3.657139523162842,13.24623,5.951249523162842,13.24623,5.951249523162842C13.24623,5.951249523162842,14.75377,4.636979523162841,14.75377,4.636979523162841C14.75377,4.636979523162841,12.75377,2.3428645231628416,12.75377,2.3428645231628416C12.75377,2.3428645231628416,11.24623,3.657139523162842,11.24623,3.657139523162842C11.24623,3.657139523162842,11.24623,3.657139523162842,11.24623,3.657139523162842ZM13.23154,5.934019523162842C13.23154,5.934019523162842,15.2315,8.335809523162842,15.2315,8.335809523162842C15.2315,8.335809523162842,16.7685,7.0560095231628415,16.7685,7.0560095231628415C16.7685,7.0560095231628415,14.76846,4.654219523162842,14.76846,4.654219523162842C14.76846,4.654219523162842,13.23154,5.934019523162842,13.23154,5.934019523162842C13.23154,5.934019523162842,13.23154,5.934019523162842,13.23154,5.934019523162842ZM15.2,13.599999523162841C15.2,13.599999523162841,17.2,16.266699523162842,17.2,16.266699523162842C17.2,16.266699523162842,18.8,15.066699523162843,18.8,15.066699523162843C18.8,15.066699523162843,16.8,12.399999523162842,16.8,12.399999523162842C16.8,12.399999523162842,15.2,13.599999523162841,15.2,13.599999523162841C15.2,13.599999523162841,15.2,13.599999523162841,15.2,13.599999523162841ZM17,15.666699523162842C17,15.666699523162842,17,20.999999523162842,17,20.999999523162842C17,20.999999523162842,19,20.999999523162842,19,20.999999523162842C19,20.999999523162842,19,15.666699523162842,19,15.666699523162842C19,15.666699523162842,17,15.666699523162842,17,15.666699523162842C17,15.666699523162842,17,15.666699523162842,17,15.666699523162842ZM18.743299999999998,20.33099952316284C18.743299999999998,20.33099952316284,14.74329,15.886599523162841,14.74329,15.886599523162841C14.74329,15.886599523162841,13.25671,17.22449952316284,13.25671,17.22449952316284C13.25671,17.22449952316284,17.256700000000002,21.668999523162842,17.256700000000002,21.668999523162842C17.256700000000002,21.668999523162842,18.743299999999998,20.33099952316284,18.743299999999998,20.33099952316284C18.743299999999998,20.33099952316284,18.743299999999998,20.33099952316284,18.743299999999998,20.33099952316284ZM7.2,12.399999523162842C7.2,12.399999523162842,5.2,15.066699523162843,5.2,15.066699523162843C5.2,15.066699523162843,6.8,16.266699523162842,6.8,16.266699523162842C6.8,16.266699523162842,8.8,13.599999523162841,8.8,13.599999523162841C8.8,13.599999523162841,7.2,12.399999523162842,7.2,12.399999523162842C7.2,12.399999523162842,7.2,12.399999523162842,7.2,12.399999523162842ZM5,15.666699523162842C5,15.666699523162842,5,20.999999523162842,5,20.999999523162842C5,20.999999523162842,7,20.999999523162842,7,20.999999523162842C7,20.999999523162842,7,15.666699523162842,7,15.666699523162842C7,15.666699523162842,5,15.666699523162842,5,15.666699523162842C5,15.666699523162842,5,15.666699523162842,5,15.666699523162842ZM6.74329,21.668999523162842C6.74329,21.668999523162842,10.74329,17.22449952316284,10.74329,17.22449952316284C10.74329,17.22449952316284,9.25671,15.886599523162841,9.25671,15.886599523162841C9.25671,15.886599523162841,5.256706,20.33099952316284,5.256706,20.33099952316284C5.256706,20.33099952316284,6.74329,21.668999523162842,6.74329,21.668999523162842C6.74329,21.668999523162842,6.74329,21.668999523162842,6.74329,21.668999523162842Z" fill="#FFFFFF" fill-opacity="1"/></g></g></svg>