<svg xmlns="http://www.w3.org/2000/svg" xmlns:xlink="http://www.w3.org/1999/xlink" fill="none" version="1.1" width="24" height="24" viewBox="0 0 24 24"><defs><clipPath id="master_svg0_954_09274"><rect x="0" y="0" width="24" height="24" rx="0"/></clipPath></defs><g clip-path="url(#master_svg0_954_09274)"><g><path d="M1.9999982714653015,11.00019C1.4477152714653014,11.00019,1.0000000241953015,11.44791,1.0000000241953015,12.00019C1.0000000241953015,12.55247,1.4477152714653014,13.00019,1.9999982714653015,13.00019C1.9999982714653015,13.00019,1.9999982714653015,11.00019,1.9999982714653015,11.00019C1.9999982714653015,11.00019,1.9999982714653015,11.00019,1.9999982714653015,11.00019ZM21.4999982714653,13.00019C22.0522982714653,13.00019,22.4999982714653,12.55247,22.4999982714653,12.00019C22.4999982714653,11.44791,22.0522982714653,11.00019,21.4999982714653,11.00019C21.4999982714653,11.00019,21.4999982714653,13.00019,21.4999982714653,13.00019C21.4999982714653,13.00019,21.4999982714653,13.00019,21.4999982714653,13.00019ZM14.999998271465302,5.00019C14.999998271465302,4.447907,14.552298271465302,4.000191798,13.999998271465302,4.000191798C13.4476982714653,4.000191798,12.999998271465302,4.447907,12.999998271465302,5.00019C12.999998271465302,5.00019,14.999998271465302,5.00019,14.999998271465302,5.00019C14.999998271465302,5.00019,14.999998271465302,5.00019,14.999998271465302,5.00019ZM12.999998271465302,11.00019C12.999998271465302,11.55247,13.4476982714653,12.00019,13.999998271465302,12.00019C14.552298271465302,12.00019,14.999998271465302,11.55247,14.999998271465302,11.00019C14.999998271465302,11.00019,12.999998271465302,11.00019,12.999998271465302,11.00019C12.999998271465302,11.00019,12.999998271465302,11.00019,12.999998271465302,11.00019ZM8.999998271465302,5.00019C8.999998271465302,4.447907,8.552278271465301,4.000191798,7.9999982714653015,4.000191798C7.447718271465302,4.000191798,6.9999982714653015,4.447907,6.9999982714653015,5.00019C6.9999982714653015,5.00019,8.999998271465302,5.00019,8.999998271465302,5.00019C8.999998271465302,5.00019,8.999998271465302,5.00019,8.999998271465302,5.00019ZM6.9999982714653015,11.00019C6.9999982714653015,11.55247,7.447718271465302,12.00019,7.9999982714653015,12.00019C8.552278271465301,12.00019,8.999998271465302,11.55247,8.999998271465302,11.00019C8.999998271465302,11.00019,6.9999982714653015,11.00019,6.9999982714653015,11.00019C6.9999982714653015,11.00019,6.9999982714653015,11.00019,6.9999982714653015,11.00019ZM18.9212982714653,6.612550000000001C18.9212982714653,6.612550000000001,18.053098271465302,7.10868,18.053098271465302,7.10868C18.053098271465302,7.10868,18.053098271465302,7.10868,18.053098271465302,7.10868C18.053098271465302,7.10868,18.9212982714653,6.612550000000001,18.9212982714653,6.612550000000001C18.9212982714653,6.612550000000001,18.9212982714653,6.612550000000001,18.9212982714653,6.612550000000001ZM21.5783982714653,11.26235C21.5783982714653,11.26235,20.710098271465302,11.75849,20.710098271465302,11.75849C20.710098271465302,11.75849,20.710098271465302,11.7585,20.710098271465302,11.7585C20.710098271465302,11.7585,21.5783982714653,11.26235,21.5783982714653,11.26235C21.5783982714653,11.26235,21.5783982714653,11.26235,21.5783982714653,11.26235ZM21.8693982714653,11.820409999999999C21.8693982714653,11.820409999999999,22.8040982714653,11.46496,22.8040982714653,11.46496C22.8040982714653,11.46496,22.8040982714653,11.46494,22.8040982714653,11.46494C22.8040982714653,11.46494,21.8693982714653,11.820409999999999,21.8693982714653,11.820409999999999C21.8693982714653,11.820409999999999,21.8693982714653,11.820409999999999,21.8693982714653,11.820409999999999ZM21.9757982714653,12.22109C21.9757982714653,12.22109,20.9878982714653,12.37619,20.9878982714653,12.37619C20.9878982714653,12.37619,20.9878982714653,12.37621,20.9878982714653,12.37621C20.9878982714653,12.37621,21.9757982714653,12.22109,21.9757982714653,12.22109C21.9757982714653,12.22109,21.9757982714653,12.22109,21.9757982714653,12.22109ZM17.459898271465303,5.09891C17.459898271465303,5.09891,17.1495982714653,6.04955,17.1495982714653,6.04955C17.1495982714653,6.04955,17.1495982714653,6.04955,17.1495982714653,6.04955C17.1495982714653,6.04955,17.459898271465303,5.09891,17.459898271465303,5.09891C17.459898271465303,5.09891,17.459898271465303,5.09891,17.459898271465303,5.09891ZM18.182198271465303,5.51808C18.182198271465303,5.51808,17.5107982714653,6.25913,17.5107982714653,6.25913C17.5107982714653,6.25913,17.5107982714653,6.25914,17.5107982714653,6.25914C17.5107982714653,6.25914,18.182198271465303,5.51808,18.182198271465303,5.51808C18.182198271465303,5.51808,18.182198271465303,5.51808,18.182198271465303,5.51808ZM3.0920182714653017,5.21818C3.0920182714653017,5.21818,2.6380282714653016,4.327172,2.6380282714653016,4.327172C2.6380282714653016,4.327172,2.6380282714653016,4.327172,2.6380282714653016,4.327172C2.6380282714653016,4.327172,3.0920182714653017,5.21818,3.0920182714653017,5.21818C3.0920182714653017,5.21818,3.0920182714653017,5.21818,3.0920182714653017,5.21818ZM2.2179882714653014,6.09221C2.2179882714653014,6.09221,1.3269802714653016,5.6382200000000005,1.3269802714653016,5.6382200000000005C1.3269802714653016,5.6382200000000005,1.3269802714653016,5.6382200000000005,1.3269802714653016,5.6382200000000005C1.3269802714653016,5.6382200000000005,2.2179882714653014,6.09221,2.2179882714653014,6.09221C2.2179882714653014,6.09221,2.2179882714653014,6.09221,2.2179882714653014,6.09221ZM1.9999982714653015,13.00019C1.9999982714653015,13.00019,21.4999982714653,13.00019,21.4999982714653,13.00019C21.4999982714653,13.00019,21.4999982714653,11.00019,21.4999982714653,11.00019C21.4999982714653,11.00019,1.9999982714653015,11.00019,1.9999982714653015,11.00019C1.9999982714653015,11.00019,1.9999982714653015,13.00019,1.9999982714653015,13.00019C1.9999982714653015,13.00019,1.9999982714653015,13.00019,1.9999982714653015,13.00019ZM7.9999982714653015,18.0002C7.9999982714653015,18.0002,15.999998271465302,18.0002,15.999998271465302,18.0002C15.999998271465302,18.0002,15.999998271465302,16.0002,15.999998271465302,16.0002C15.999998271465302,16.0002,7.9999982714653015,16.0002,7.9999982714653015,16.0002C7.9999982714653015,16.0002,7.9999982714653015,18.0002,7.9999982714653015,18.0002C7.9999982714653015,18.0002,7.9999982714653015,18.0002,7.9999982714653015,18.0002ZM12.999998271465302,5.00019C12.999998271465302,5.00019,12.999998271465302,11.00019,12.999998271465302,11.00019C12.999998271465302,11.00019,14.999998271465302,11.00019,14.999998271465302,11.00019C14.999998271465302,11.00019,14.999998271465302,5.00019,14.999998271465302,5.00019C14.999998271465302,5.00019,12.999998271465302,5.00019,12.999998271465302,5.00019C12.999998271465302,5.00019,12.999998271465302,5.00019,12.999998271465302,5.00019ZM6.9999982714653015,5.00019C6.9999982714653015,5.00019,6.9999982714653015,11.00019,6.9999982714653015,11.00019C6.9999982714653015,11.00019,8.999998271465302,11.00019,8.999998271465302,11.00019C8.999998271465302,11.00019,8.999998271465302,5.00019,8.999998271465302,5.00019C8.999998271465302,5.00019,6.9999982714653015,5.00019,6.9999982714653015,5.00019C6.9999982714653015,5.00019,6.9999982714653015,5.00019,6.9999982714653015,5.00019ZM5.199998271465302,6.00019C5.199998271465302,6.00019,16.142998271465302,6.00019,16.142998271465302,6.00019C16.142998271465302,6.00019,16.142998271465302,4.000191798,16.142998271465302,4.000191798C16.142998271465302,4.000191798,5.199998271465302,4.000191798,5.199998271465302,4.000191798C5.199998271465302,4.000191798,5.199998271465302,6.00019,5.199998271465302,6.00019C5.199998271465302,6.00019,5.199998271465302,6.00019,5.199998271465302,6.00019ZM2.9999982714653015,15.0002C2.9999982714653015,15.0002,2.9999982714653015,8.20019,2.9999982714653015,8.20019C2.9999982714653015,8.20019,1.0000000241953015,8.20019,1.0000000241953015,8.20019C1.0000000241953015,8.20019,1.0000000241953015,15.0002,1.0000000241953015,15.0002C1.0000000241953015,15.0002,2.9999982714653015,15.0002,2.9999982714653015,15.0002C2.9999982714653015,15.0002,2.9999982714653015,15.0002,2.9999982714653015,15.0002ZM18.053098271465302,7.10868C18.053098271465302,7.10868,20.710098271465302,11.75849,20.710098271465302,11.75849C20.710098271465302,11.75849,22.4465982714653,10.766210000000001,22.4465982714653,10.766210000000001C22.4465982714653,10.766210000000001,19.7895982714653,6.11641,19.7895982714653,6.11641C19.7895982714653,6.11641,18.053098271465302,7.10868,18.053098271465302,7.10868C18.053098271465302,7.10868,18.053098271465302,7.10868,18.053098271465302,7.10868ZM20.9999982714653,12.85C20.9999982714653,12.85,20.9999982714653,15.0002,20.9999982714653,15.0002C20.9999982714653,15.0002,22.9999982714653,15.0002,22.9999982714653,15.0002C22.9999982714653,15.0002,22.9999982714653,12.85,22.9999982714653,12.85C22.9999982714653,12.85,20.9999982714653,12.85,20.9999982714653,12.85C20.9999982714653,12.85,20.9999982714653,12.85,20.9999982714653,12.85ZM20.710098271465302,11.7585C20.882098271465303,12.05938,20.9132982714653,12.11965,20.9346982714653,12.17587C20.9346982714653,12.17587,22.8040982714653,11.46494,22.8040982714653,11.46494C22.714498271465303,11.22943,22.5886982714653,11.014859999999999,22.4465982714653,10.766210000000001C22.4465982714653,10.766210000000001,20.710098271465302,11.7585,20.710098271465302,11.7585C20.710098271465302,11.7585,20.710098271465302,11.7585,20.710098271465302,11.7585ZM22.9999982714653,12.85C22.9999982714653,12.5636,23.002798271465302,12.3149,22.9636982714653,12.06597C22.9636982714653,12.06597,20.9878982714653,12.37621,20.9878982714653,12.37621C20.9971982714653,12.43562,20.9999982714653,12.50341,20.9999982714653,12.85C20.9999982714653,12.85,22.9999982714653,12.85,22.9999982714653,12.85C22.9999982714653,12.85,22.9999982714653,12.85,22.9999982714653,12.85ZM20.9346982714653,12.17585C20.9592982714653,12.24062,20.9770982714653,12.30776,20.9878982714653,12.37619C20.9878982714653,12.37619,22.9636982714653,12.06598,22.9636982714653,12.06598C22.9313982714653,11.86064,22.8779982714653,11.659220000000001,22.8040982714653,11.46496C22.8040982714653,11.46496,20.9346982714653,12.17585,20.9346982714653,12.17585C20.9346982714653,12.17585,20.9346982714653,12.17585,20.9346982714653,12.17585ZM1.0000000241953015,15.0002C1.0000000241953015,16.6571,2.3431482714653016,18.0002,3.9999982714653015,18.0002C3.9999982714653015,18.0002,3.9999982714653015,16.0002,3.9999982714653015,16.0002C3.4477182714653014,16.0002,2.9999982714653015,15.5525,2.9999982714653015,15.0002C2.9999982714653015,15.0002,1.0000000241953015,15.0002,1.0000000241953015,15.0002C1.0000000241953015,15.0002,1.0000000241953015,15.0002,1.0000000241953015,15.0002ZM20.9999982714653,15.0002C20.9999982714653,15.5525,20.5522982714653,16.0002,19.9999982714653,16.0002C19.9999982714653,16.0002,19.9999982714653,18.0002,19.9999982714653,18.0002C21.6568982714653,18.0002,22.9999982714653,16.6571,22.9999982714653,15.0002C22.9999982714653,15.0002,20.9999982714653,15.0002,20.9999982714653,15.0002C20.9999982714653,15.0002,20.9999982714653,15.0002,20.9999982714653,15.0002ZM16.142998271465302,6.00019C16.8870982714653,6.00019,17.034298271465303,6.01191,17.1495982714653,6.04955C17.1495982714653,6.04955,17.7701982714653,4.148263,17.7701982714653,4.148263C17.2805982714653,3.9884718,16.7514982714653,4.000191798,16.142998271465302,4.000191798C16.142998271465302,4.000191798,16.142998271465302,6.00019,16.142998271465302,6.00019C16.142998271465302,6.00019,16.142998271465302,6.00019,16.142998271465302,6.00019ZM19.7895982714653,6.11641C19.4876982714653,5.5880600000000005,19.2352982714653,5.12281,18.8536982714653,4.777023C18.8536982714653,4.777023,17.5107982714653,6.25914,17.5107982714653,6.25914C17.6006982714653,6.34058,17.683898271465303,6.46256,18.053098271465302,7.10868C18.053098271465302,7.10868,19.7895982714653,6.11641,19.7895982714653,6.11641C19.7895982714653,6.11641,19.7895982714653,6.11641,19.7895982714653,6.11641ZM17.1495982714653,6.04955C17.283398271465302,6.0932200000000005,17.406498271465303,6.16464,17.5107982714653,6.25913C17.5107982714653,6.25913,18.8536982714653,4.777026,18.8536982714653,4.777026C18.540798271465302,4.49353,18.171598271465303,4.279272,17.7701982714653,4.148263C17.7701982714653,4.148263,17.1495982714653,6.04955,17.1495982714653,6.04955C17.1495982714653,6.04955,17.1495982714653,6.04955,17.1495982714653,6.04955ZM5.199998271465302,4.000191798C4.656448271465301,4.000191798,4.188638271465301,3.999411798,3.8049682714653015,4.0307608C3.4096282714653015,4.0630618,3.0164082714653015,4.134378,2.6380282714653016,4.327172C2.6380282714653016,4.327172,3.5460082714653014,6.10918,3.5460082714653014,6.10918C3.5954482714653015,6.08399,3.6961682714653015,6.04631,3.9678382714653013,6.02412C4.251168271465302,6.000970000000001,4.623448271465302,6.00019,5.199998271465302,6.00019C5.199998271465302,6.00019,5.199998271465302,4.000191798,5.199998271465302,4.000191798C5.199998271465302,4.000191798,5.199998271465302,4.000191798,5.199998271465302,4.000191798ZM2.9999982714653015,8.20019C2.9999982714653015,7.62364,3.0007782714653013,7.25136,3.0239282714653015,6.968030000000001C3.0461182714653017,6.69636,3.0837982714653016,6.5956399999999995,3.1089882714653014,6.5462C3.1089882714653014,6.5462,1.3269802714653016,5.6382200000000005,1.3269802714653016,5.6382200000000005C1.1341862714653015,6.0166,1.0628700714653014,6.40982,1.0305690714653015,6.80516C0.9992200244653016,7.188829999999999,1.0000000241953015,7.6566399999999994,1.0000000241953015,8.20019C1.0000000241953015,8.20019,2.9999982714653015,8.20019,2.9999982714653015,8.20019C2.9999982714653015,8.20019,2.9999982714653015,8.20019,2.9999982714653015,8.20019ZM2.6380282714653016,4.327172C2.0735382714653015,4.614793,1.6146012714653015,5.07373,1.3269802714653016,5.6382200000000005C1.3269802714653016,5.6382200000000005,3.1089882714653014,6.5462,3.1089882714653014,6.5462C3.2048682714653016,6.35804,3.3578482714653015,6.20506,3.5460082714653014,6.10918C3.5460082714653014,6.10918,2.6380282714653016,4.327172,2.6380282714653016,4.327172C2.6380282714653016,4.327172,2.6380282714653016,4.327172,2.6380282714653016,4.327172ZM6.9999982714653015,17.0002C6.9999982714653015,17.552500000000002,6.552278271465301,18.0002,5.9999982714653015,18.0002C5.9999982714653015,18.0002,5.9999982714653015,20.0002,5.9999982714653015,20.0002C7.656848271465302,20.0002,8.999998271465302,18.6571,8.999998271465302,17.0002C8.999998271465302,17.0002,6.9999982714653015,17.0002,6.9999982714653015,17.0002C6.9999982714653015,17.0002,6.9999982714653015,17.0002,6.9999982714653015,17.0002ZM5.9999982714653015,18.0002C5.447718271465302,18.0002,4.9999982714653015,17.552500000000002,4.9999982714653015,17.0002C4.9999982714653015,17.0002,2.9999982714653015,17.0002,2.9999982714653015,17.0002C2.9999982714653015,18.6571,4.343148271465301,20.0002,5.9999982714653015,20.0002C5.9999982714653015,20.0002,5.9999982714653015,18.0002,5.9999982714653015,18.0002C5.9999982714653015,18.0002,5.9999982714653015,18.0002,5.9999982714653015,18.0002ZM4.9999982714653015,17.0002C4.9999982714653015,16.4479,5.447718271465302,16.0002,5.9999982714653015,16.0002C5.9999982714653015,16.0002,5.9999982714653015,14.0002,5.9999982714653015,14.0002C4.343148271465301,14.0002,2.9999982714653015,15.3433,2.9999982714653015,17.0002C2.9999982714653015,17.0002,4.9999982714653015,17.0002,4.9999982714653015,17.0002C4.9999982714653015,17.0002,4.9999982714653015,17.0002,4.9999982714653015,17.0002ZM5.9999982714653015,16.0002C6.552278271465301,16.0002,6.9999982714653015,16.4479,6.9999982714653015,17.0002C6.9999982714653015,17.0002,8.999998271465302,17.0002,8.999998271465302,17.0002C8.999998271465302,15.3433,7.656848271465302,14.0002,5.9999982714653015,14.0002C5.9999982714653015,14.0002,5.9999982714653015,16.0002,5.9999982714653015,16.0002C5.9999982714653015,16.0002,5.9999982714653015,16.0002,5.9999982714653015,16.0002ZM18.9999982714653,17.0002C18.9999982714653,17.552500000000002,18.5522982714653,18.0002,17.9999982714653,18.0002C17.9999982714653,18.0002,17.9999982714653,20.0002,17.9999982714653,20.0002C19.6568982714653,20.0002,20.9999982714653,18.6571,20.9999982714653,17.0002C20.9999982714653,17.0002,18.9999982714653,17.0002,18.9999982714653,17.0002C18.9999982714653,17.0002,18.9999982714653,17.0002,18.9999982714653,17.0002ZM17.9999982714653,18.0002C17.447698271465303,18.0002,16.9999982714653,17.552500000000002,16.9999982714653,17.0002C16.9999982714653,17.0002,14.999998271465302,17.0002,14.999998271465302,17.0002C14.999998271465302,18.6571,16.3430982714653,20.0002,17.9999982714653,20.0002C17.9999982714653,20.0002,17.9999982714653,18.0002,17.9999982714653,18.0002C17.9999982714653,18.0002,17.9999982714653,18.0002,17.9999982714653,18.0002ZM16.9999982714653,17.0002C16.9999982714653,16.4479,17.447698271465303,16.0002,17.9999982714653,16.0002C17.9999982714653,16.0002,17.9999982714653,14.0002,17.9999982714653,14.0002C16.3430982714653,14.0002,14.999998271465302,15.3433,14.999998271465302,17.0002C14.999998271465302,17.0002,16.9999982714653,17.0002,16.9999982714653,17.0002C16.9999982714653,17.0002,16.9999982714653,17.0002,16.9999982714653,17.0002ZM17.9999982714653,16.0002C18.5522982714653,16.0002,18.9999982714653,16.4479,18.9999982714653,17.0002C18.9999982714653,17.0002,20.9999982714653,17.0002,20.9999982714653,17.0002C20.9999982714653,15.3433,19.6568982714653,14.0002,17.9999982714653,14.0002C17.9999982714653,14.0002,17.9999982714653,16.0002,17.9999982714653,16.0002C17.9999982714653,16.0002,17.9999982714653,16.0002,17.9999982714653,16.0002Z" fill="#FFFFFF" fill-opacity="1"/></g></g></svg>