<svg xmlns="http://www.w3.org/2000/svg" xmlns:xlink="http://www.w3.org/1999/xlink" fill="none" version="1.1" width="124" height="124" viewBox="0 0 124 124"><defs><clipPath id="master_svg0_978_07942"><rect x="33" y="28" width="58" height="76" rx="0"/></clipPath></defs><g><g><rect x="0" y="0" width="124" height="124" rx="62" fill="#1C2017" fill-opacity="1"/></g><g clip-path="url(#master_svg0_978_07942)"><g><path d="M62.090871093749996,28C50.27254109375,28,40.69287109375,37.496880000000004,40.69287109375,49.210499999999996C40.69287109375,60.924,50.27254109375,70.4197,62.090871093749996,70.4197C73.90927109375,70.4197,83.48777109375,60.924,83.48777109375,49.210499999999996L83.48777109375,28L62.090871093749996,28ZM52.49927109375,53.3377C52.20717109375,53.6272,51.80367109375,53.7779,51.39187109375,53.7542C50.97887109375,53.7779,50.57662109375,53.6272,50.283321093750004,53.3377C49.991211093749996,53.048100000000005,49.83917109375,52.6482,49.863121093749996,52.2388L49.863121093749996,46.1797C49.863121093749996,45.3431,50.547891093749996,44.6655,51.39187109375,44.6655C52.23587109375,44.6655,52.92067109375,45.3431,52.92067109375,46.1797L52.92067109375,52.239999999999995C52.94457109375,52.6494,52.79137109375,53.048100000000005,52.49927109375,53.3377ZM63.19827109375,53.3377C62.90497109375,53.6272,62.50277109375,53.7779,62.090871093749996,53.7542C61.67787109375,53.7779,61.27447109375,53.6272,60.982371093750004,53.3377C60.69027109375,53.048100000000005,60.53697109375,52.6482,60.562171093749996,52.2388L60.562171093749996,46.1797C60.562171093749996,45.3431,61.245671093750005,44.6655,62.090871093749996,44.6655C62.93607109375,44.6655,63.61967109375,45.3431,63.61967109375,46.1797L63.61967109375,52.239999999999995C63.64367109375,52.6494,63.49037109375,53.048100000000005,63.19827109375,53.3377Z" fill="#D9FFBA" fill-opacity="0.12999999523162842"/></g><g><path d="M33,94.24836875C33,82.58348875,42.68024,76.48046875,54.4483,76.48046875L69.7325,76.48046875C81.5005,76.48046875,91.0012,82.69384875,91.0012,94.35876875Q80.5153,104.03606875,62.2598,104.00046875Q44.0043,103.96606875,33,94.24836875Z" fill="#D9FFBA" fill-opacity="0.12999999523162842"/></g></g></g></svg>