<svg xmlns="http://www.w3.org/2000/svg" xmlns:xlink="http://www.w3.org/1999/xlink" fill="none" version="1.1" width="24" height="24" viewBox="0 0 24 24"><defs><clipPath id="master_svg0_987_14799"><rect x="0" y="0" width="24" height="24" rx="0"/></clipPath></defs><g clip-path="url(#master_svg0_987_14799)"><g transform="matrix(1,0,0,-1,0,32)"><path d="M5.292892953674317,22.29289C4.902370253674317,22.683419999999998,4.902370253674317,23.316580000000002,5.292892953674317,23.70711C5.683417953674317,24.097630000000002,6.3165809536743165,24.097630000000002,6.7071109536743165,23.70711C6.7071109536743165,23.70711,5.292892953674317,22.29289,5.292892953674317,22.29289C5.292892953674317,22.29289,5.292892953674317,22.29289,5.292892953674317,22.29289ZM12.000000953674316,17C12.000000953674316,17,12.707110953674317,16.292893,12.707110953674317,16.292893C12.519570953674316,16.105357,12.265220953674316,16,12.000000953674316,16C11.734780953674317,16,11.480430953674317,16.105357,11.292890953674316,16.292893C11.292890953674316,16.292893,12.000000953674316,17,12.000000953674316,17C12.000000953674316,17,12.000000953674316,17,12.000000953674316,17ZM17.292900953674316,23.70711C17.683400953674315,24.097630000000002,18.316600953674318,24.097630000000002,18.707100953674317,23.70711C19.097600953674316,23.316580000000002,19.097600953674316,22.683419999999998,18.707100953674317,22.29289C18.707100953674317,22.29289,17.292900953674316,23.70711,17.292900953674316,23.70711C17.292900953674316,23.70711,17.292900953674316,23.70711,17.292900953674316,23.70711ZM6.7071109536743165,23.70711C6.7071109536743165,23.70711,12.707110953674317,17.70711,12.707110953674317,17.70711C12.707110953674317,17.70711,11.292890953674316,16.292893,11.292890953674316,16.292893C11.292890953674316,16.292893,5.292892953674317,22.29289,5.292892953674317,22.29289C5.292892953674317,22.29289,6.7071109536743165,23.70711,6.7071109536743165,23.70711C6.7071109536743165,23.70711,6.7071109536743165,23.70711,6.7071109536743165,23.70711ZM11.292890953674316,17.70711C11.292890953674316,17.70711,17.292900953674316,23.70711,17.292900953674316,23.70711C17.292900953674316,23.70711,18.707100953674317,22.29289,18.707100953674317,22.29289C18.707100953674317,22.29289,12.707110953674317,16.292893,12.707110953674317,16.292893C12.707110953674317,16.292893,11.292890953674316,17.70711,11.292890953674316,17.70711C11.292890953674316,17.70711,11.292890953674316,17.70711,11.292890953674316,17.70711Z" fill="#FFFFFF" fill-opacity="1"/></g></g></svg>