<svg xmlns="http://www.w3.org/2000/svg" xmlns:xlink="http://www.w3.org/1999/xlink" fill="none" version="1.1" width="16.666767120361328" height="16.610504150390625" viewBox="0 0 16.666767120361328 16.610504150390625"><g><path d="M5.65077,10.2566C5.36327,9.89717,4.83886,9.83892,4.47947,10.1264C4.12008,10.4139,4.06182,10.9383,4.34932,11.2977C4.34932,11.2977,5.65077,10.2566,5.65077,10.2566C5.65077,10.2566,5.65077,10.2566,5.65077,10.2566ZM12.3175,11.2977C12.605,10.9383,12.5467,10.4139,12.1873,10.1264C11.8279,9.83892,11.3035,9.89717,11.016,10.2566C11.016,10.2566,12.3175,11.2977,12.3175,11.2977C12.3175,11.2977,12.3175,11.2977,12.3175,11.2977ZM2.89237,4.1757C2.89237,4.1757,3.40398,4.8335,3.40398,4.8335C3.40398,4.8335,2.89237,4.1757,2.89237,4.1757C2.89237,4.1757,2.89237,4.1757,2.89237,4.1757ZM5.05903,2.49051C5.05903,2.49051,5.57065,3.1483,5.57065,3.1483C5.57065,3.1483,5.05903,2.49051,5.05903,2.49051C5.05903,2.49051,5.05903,2.49051,5.05903,2.49051ZM11.6077,2.49051C11.6077,2.49051,11.0961,3.14831,11.0961,3.14831C11.0961,3.14831,11.0961,3.14831,11.0961,3.14831C11.0961,3.14831,11.6077,2.49051,11.6077,2.49051C11.6077,2.49051,11.6077,2.49051,11.6077,2.49051ZM13.7744,4.1757C13.7744,4.1757,13.2628,4.8335,13.2628,4.8335C13.2628,4.8335,13.7744,4.1757,13.7744,4.1757C13.7744,4.1757,13.7744,4.1757,13.7744,4.1757ZM15.47,13.9571C15.47,13.9571,14.7276,13.5788,14.7276,13.5788C14.7276,13.5788,14.7276,13.5788,14.7276,13.5788C14.7276,13.5788,15.47,13.9571,15.47,13.9571C15.47,13.9571,15.47,13.9571,15.47,13.9571ZM14.0134,15.4138C14.0134,15.4138,13.635,14.6713,13.635,14.6713C13.635,14.6713,13.635,14.6713,13.635,14.6713C13.635,14.6713,14.0134,15.4138,14.0134,15.4138C14.0134,15.4138,14.0134,15.4138,14.0134,15.4138ZM15.18,5.42525C15.18,5.42525,15.85,4.92971,15.85,4.92971C15.85,4.92971,15.85,4.92971,15.85,4.92971C15.85,4.92971,15.18,5.42525,15.18,5.42525C15.18,5.42525,15.18,5.42525,15.18,5.42525ZM15.71,6.50891C15.71,6.50891,16.5125,6.28429,16.5125,6.28429C16.5125,6.28429,16.5125,6.28429,16.5125,6.28429C16.5125,6.28429,15.71,6.50891,15.71,6.50891C15.71,6.50891,15.71,6.50891,15.71,6.50891ZM7.46222,0.949187C7.46222,0.949187,7.24444,0.144816,7.24444,0.144816C7.24444,0.144816,7.46222,0.949187,7.46222,0.949187C7.46222,0.949187,7.46222,0.949187,7.46222,0.949187ZM9.20455,0.949187C9.20455,0.949187,8.98675,1.75356,8.98675,1.75356C8.98675,1.75356,8.98675,1.75356,8.98675,1.75356C8.98675,1.75356,9.20455,0.949187,9.20455,0.949187C9.20455,0.949187,9.20455,0.949187,9.20455,0.949187ZM0.956762,6.50891C0.956762,6.50891,1.75925,6.73354,1.75925,6.73354C1.75925,6.73354,1.75925,6.73354,1.75925,6.73354C1.75925,6.73354,0.956762,6.50891,0.956762,6.50891C0.956762,6.50891,0.956762,6.50891,0.956762,6.50891ZM1.48676,5.42525C1.48676,5.42525,2.15675,5.92079,2.15675,5.92079C2.15675,5.92079,2.15675,5.92079,2.15675,5.92079C2.15675,5.92079,1.48676,5.42525,1.48676,5.42525C1.48676,5.42525,1.48676,5.42525,1.48676,5.42525ZM1.19669,13.9571C1.19669,13.9571,1.9392,13.5788,1.9392,13.5788C1.9392,13.5788,1.9392,13.5788,1.9392,13.5788C1.9392,13.5788,1.19669,13.9571,1.19669,13.9571C1.19669,13.9571,1.19669,13.9571,1.19669,13.9571ZM2.65342,15.4138C2.65342,15.4138,3.03174,14.6713,3.03174,14.6713C3.03174,14.6713,3.03174,14.6713,3.03174,14.6713C3.03174,14.6713,2.65342,15.4138,2.65342,15.4138C2.65342,15.4138,2.65342,15.4138,2.65342,15.4138ZM5.00005,10.7772C4.34932,11.2977,4.34952,11.2979,4.34972,11.2982C4.34978,11.2983,4.34999,11.2985,4.35013,11.2988C4.35042,11.2991,4.35073,11.2995,4.35107,11.2999C4.35173,11.3007,4.35248,11.3017,4.35332,11.3027C4.35499,11.3048,4.357,11.3072,4.35934,11.3101C4.36403,11.3158,4.37007,11.3231,4.37742,11.3318C4.39214,11.3493,4.41219,11.3728,4.43742,11.4013C4.48782,11.4582,4.55923,11.5357,4.65037,11.6268C4.83192,11.8083,5.09591,12.0483,5.43235,12.2886C6.09807,12.7641,7.09909,13.2772,8.33338,13.2772C8.33338,13.2772,8.33338,11.6105,8.33338,11.6105C7.56768,11.6105,6.90203,11.2902,6.40108,10.9323C6.15419,10.756,5.95984,10.5793,5.82889,10.4483C5.76378,10.3832,5.7154,10.3304,5.68507,10.2963C5.66993,10.2792,5.65939,10.2668,5.6536,10.2598C5.65071,10.2564,5.64901,10.2543,5.64853,10.2538C5.64829,10.2535,5.64836,10.2536,5.64873,10.254C5.64892,10.2543,5.64917,10.2546,5.64952,10.255C5.64969,10.2552,5.64988,10.2554,5.65009,10.2557C5.65019,10.2558,5.65037,10.256,5.65042,10.2561C5.65059,10.2563,5.65077,10.2566,5.00005,10.7772C5.00005,10.7772,5.00005,10.7772,5.00005,10.7772ZM8.33338,13.2772C9.56763,13.2772,10.5687,12.7641,11.2344,12.2886C11.5709,12.0483,11.8349,11.8083,12.0164,11.6268C12.1075,11.5357,12.179,11.4582,12.2294,11.4013C12.2545,11.3728,12.2746,11.3493,12.2894,11.3318C12.2967,11.3231,12.3027,11.3158,12.3074,11.3101C12.3098,11.3072,12.3118,11.3048,12.3135,11.3027C12.3143,11.3017,12.3151,11.3007,12.3157,11.2999C12.3161,11.2995,12.3164,11.2991,12.3166,11.2988C12.3168,11.2985,12.317,11.2983,12.317,11.2982C12.3172,11.2979,12.3175,11.2977,11.6667,10.7772C11.016,10.2566,11.0161,10.2563,11.0164,10.2561C11.0164,10.256,11.0165,10.2558,11.0167,10.2557C11.0169,10.2554,11.0171,10.2552,11.0172,10.255C11.0175,10.2546,11.0179,10.2543,11.018,10.254C11.0184,10.2536,11.0185,10.2535,11.0182,10.2538C11.0177,10.2543,11.0161,10.2564,11.0131,10.2598C11.0074,10.2668,10.9968,10.2792,10.9817,10.2963C10.9514,10.3304,10.903,10.3832,10.8379,10.4483C10.7069,10.5793,10.5125,10.756,10.2657,10.9323C9.76472,11.2902,9.09909,11.6105,8.33338,11.6105C8.33338,11.6105,8.33338,13.2772,8.33338,13.2772C8.33338,13.2772,8.33338,13.2772,8.33338,13.2772ZM1.66672,10.4438C1.66672,10.4438,1.66672,8.38558,1.66672,8.38558C1.66672,8.38558,0.0000490688,8.38558,0.0000490688,8.38558C0.0000490688,8.38558,0.0000490688,10.4438,0.0000490688,10.4438C0.0000490688,10.4438,1.66672,10.4438,1.66672,10.4438C1.66672,10.4438,1.66672,10.4438,1.66672,10.4438ZM3.40398,4.8335C3.40398,4.8335,5.57065,3.1483,5.57065,3.1483C5.57065,3.1483,4.54742,1.83272,4.54742,1.83272C4.54742,1.83272,2.38075,3.5179,2.38075,3.5179C2.38075,3.5179,3.40398,4.8335,3.40398,4.8335C3.40398,4.8335,3.40398,4.8335,3.40398,4.8335ZM11.0961,3.14831C11.0961,3.14831,13.2628,4.8335,13.2628,4.8335C13.2628,4.8335,14.286,3.51791,14.286,3.51791C14.286,3.51791,12.1194,1.83272,12.1194,1.83272C12.1194,1.83272,11.0961,3.14831,11.0961,3.14831C11.0961,3.14831,11.0961,3.14831,11.0961,3.14831ZM15,8.38558C15,8.38558,15,10.4438,15,10.4438C15,10.4438,16.6667,10.4438,16.6667,10.4438C16.6667,10.4438,16.6667,8.38558,16.6667,8.38558C16.6667,8.38558,15,8.38558,15,8.38558C15,8.38558,15,8.38558,15,8.38558ZM10.5,14.9438C10.5,14.9438,6.16672,14.9438,6.16672,14.9438C6.16672,14.9438,6.16672,16.6105,6.16672,16.6105C6.16672,16.6105,10.5,16.6105,10.5,16.6105C10.5,16.6105,10.5,14.9438,10.5,14.9438C10.5,14.9438,10.5,14.9438,10.5,14.9438ZM15,10.4438C15,11.391,14.9994,12.0513,14.9574,12.5653C14.9162,13.0696,14.8394,13.3593,14.7276,13.5788C14.7276,13.5788,16.2126,14.3354,16.2126,14.3354C16.464,13.8418,16.5689,13.3083,16.6186,12.701C16.6674,12.1033,16.6667,11.3635,16.6667,10.4438C16.6667,10.4438,15,10.4438,15,10.4438C15,10.4438,15,10.4438,15,10.4438ZM10.5,16.6105C11.4197,16.6105,12.1595,16.6111,12.7572,16.5623C13.3646,16.5127,13.8981,16.4078,14.3917,16.1563C14.3917,16.1563,13.635,14.6713,13.635,14.6713C13.4156,14.7832,13.1258,14.8599,12.6216,14.9012C12.1075,14.9432,11.4472,14.9438,10.5,14.9438C10.5,14.9438,10.5,16.6105,10.5,16.6105C10.5,16.6105,10.5,16.6105,10.5,16.6105ZM14.7276,13.5788C14.4879,14.0492,14.1055,14.4317,13.635,14.6713C13.635,14.6713,14.3917,16.1563,14.3917,16.1563C15.1757,15.7568,15.8131,15.1194,16.2126,14.3354C16.2126,14.3354,14.7276,13.5788,14.7276,13.5788C14.7276,13.5788,14.7276,13.5788,14.7276,13.5788ZM13.2628,4.8335C14.0556,5.45017,14.3219,5.66638,14.5101,5.92079C14.5101,5.92079,15.85,4.92971,15.85,4.92971C15.4938,4.44812,15.0044,4.07664,14.286,3.51791C14.286,3.51791,13.2628,4.8335,13.2628,4.8335C13.2628,4.8335,13.2628,4.8335,13.2628,4.8335ZM16.6667,8.38558C16.6667,7.47551,16.674,6.86112,16.5125,6.28429C16.5125,6.28429,14.9075,6.73354,14.9075,6.73354C14.9928,7.03826,15,7.38112,15,8.38558C15,8.38558,16.6667,8.38558,16.6667,8.38558C16.6667,8.38558,16.6667,8.38558,16.6667,8.38558ZM14.5101,5.92079C14.6909,6.16528,14.8256,6.4407,14.9075,6.73354C14.9075,6.73354,16.5125,6.28429,16.5125,6.28429C16.3759,5.79623,16.1514,5.33719,15.85,4.92971C15.85,4.92971,14.5101,5.92079,14.5101,5.92079C14.5101,5.92079,14.5101,5.92079,14.5101,5.92079ZM5.57065,3.1483C6.80257,2.19015,7.23457,1.87417,7.68002,1.75356C7.68002,1.75356,7.24444,0.144816,7.24444,0.144816C6.39676,0.374331,5.65767,0.969192,4.54742,1.83272C4.54742,1.83272,5.57065,3.1483,5.57065,3.1483C5.57065,3.1483,5.57065,3.1483,5.57065,3.1483ZM12.1194,1.83272C11.0091,0.969196,10.27,0.374331,9.4223,0.144816C9.4223,0.144816,8.98675,1.75356,8.98675,1.75356C9.43221,1.87417,9.86422,2.19015,11.0961,3.14831C11.0961,3.14831,12.1194,1.83272,12.1194,1.83272C12.1194,1.83272,12.1194,1.83272,12.1194,1.83272ZM7.68002,1.75356C8.10789,1.63771,8.55887,1.63771,8.98675,1.75356C8.98675,1.75356,9.4223,0.144816,9.4223,0.144816C8.7092,-0.0482719,7.95757,-0.0482719,7.24444,0.144816C7.24444,0.144816,7.68002,1.75356,7.68002,1.75356C7.68002,1.75356,7.68002,1.75356,7.68002,1.75356ZM1.66672,8.38558C1.66672,7.38112,1.67396,7.03826,1.75925,6.73354C1.75925,6.73354,0.154272,6.28429,0.154272,6.28429C-0.0071926,6.86112,0.0000490688,7.47551,0.0000490688,8.38558C0.0000490688,8.38558,1.66672,8.38558,1.66672,8.38558C1.66672,8.38558,1.66672,8.38558,1.66672,8.38558ZM2.38075,3.5179C1.66239,4.07663,1.17297,4.44812,0.816772,4.92971C0.816772,4.92971,2.15675,5.92079,2.15675,5.92079C2.34492,5.66638,2.61112,5.45017,3.40398,4.8335C3.40398,4.8335,2.38075,3.5179,2.38075,3.5179C2.38075,3.5179,2.38075,3.5179,2.38075,3.5179ZM1.75925,6.73354C1.84122,6.4407,1.97592,6.16528,2.15675,5.92079C2.15675,5.92079,0.816772,4.92971,0.816772,4.92971C0.515394,5.33719,0.290886,5.79623,0.154272,6.28429C0.154272,6.28429,1.75925,6.73354,1.75925,6.73354C1.75925,6.73354,1.75925,6.73354,1.75925,6.73354ZM0.0000490688,10.4438C0.0000490688,11.3635,-0.000600931,12.1033,0.0482307,12.701C0.0978549,13.3083,0.202699,13.8418,0.454188,14.3354C0.454188,14.3354,1.9392,13.5788,1.9392,13.5788C1.82737,13.3593,1.75057,13.0696,1.70937,12.5653C1.66737,12.0513,1.66672,11.391,1.66672,10.4438C1.66672,10.4438,0.0000490688,10.4438,0.0000490688,10.4438C0.0000490688,10.4438,0.0000490688,10.4438,0.0000490688,10.4438ZM6.16672,14.9438C5.21954,14.9438,4.55928,14.9432,4.04525,14.9012C3.54094,14.8599,3.2512,14.7832,3.03174,14.6713C3.03174,14.6713,2.27509,16.1563,2.27509,16.1563C2.76867,16.4078,3.30216,16.5127,3.90953,16.5623C4.50717,16.6111,5.24705,16.6105,6.16672,16.6105C6.16672,16.6105,6.16672,14.9438,6.16672,14.9438C6.16672,14.9438,6.16672,14.9438,6.16672,14.9438ZM0.454188,14.3354C0.853661,15.1194,1.49108,15.7568,2.27509,16.1563C2.27509,16.1563,3.03174,14.6713,3.03174,14.6713C2.56133,14.4317,2.17888,14.0492,1.9392,13.5788C1.9392,13.5788,0.454188,14.3354,0.454188,14.3354C0.454188,14.3354,0.454188,14.3354,0.454188,14.3354Z" fill="#FFFFFF" fill-opacity="1"/></g></svg>