<svg xmlns="http://www.w3.org/2000/svg" xmlns:xlink="http://www.w3.org/1999/xlink" fill="none" version="1.1" width="20" height="20" viewBox="0 0 20 20"><defs><clipPath id="master_svg0_987_12555"><rect x="5" y="5" width="10" height="10" rx="5"/></clipPath></defs><g><g><ellipse cx="10" cy="10" rx="10" ry="10" fill="#2D3429" fill-opacity="1"/></g><g clip-path="url(#master_svg0_987_12555)"><g><path d="M7.50016609375,12.63729875C7.50016609375,12.86742875,7.68671609375,13.05396875,7.91682609375,13.05396875C8.14694609375,13.05396875,8.33349609375,12.86742875,8.33349609375,12.63729875C8.33349609375,12.63729875,7.50016609375,12.63729875,7.50016609375,12.63729875C7.50016609375,12.63729875,7.50016609375,12.63729875,7.50016609375,12.63729875ZM8.33349609375,10.51889875C8.33349609375,10.28877875,8.14694609375,10.10222875,7.91682609375,10.10222875C7.68671609375,10.10222875,7.50016609375,10.28877875,7.50016609375,10.51889875C7.50016609375,10.51889875,8.33349609375,10.51889875,8.33349609375,10.51889875C8.33349609375,10.51889875,8.33349609375,10.51889875,8.33349609375,10.51889875ZM11.66682609375,12.63729875C11.66682609375,12.86742875,11.853366093750001,13.05396875,12.08349609375,13.05396875C12.31361609375,13.05396875,12.50016609375,12.86742875,12.50016609375,12.63729875C12.50016609375,12.63729875,11.66682609375,12.63729875,11.66682609375,12.63729875C11.66682609375,12.63729875,11.66682609375,12.63729875,11.66682609375,12.63729875ZM12.50016609375,10.51889875C12.50016609375,10.28877875,12.31361609375,10.10222875,12.08349609375,10.10222875C11.853366093750001,10.10222875,11.66682609375,10.28877875,11.66682609375,10.51889875C11.66682609375,10.51889875,12.50016609375,10.51889875,12.50016609375,10.51889875C12.50016609375,10.51889875,12.50016609375,10.51889875,12.50016609375,10.51889875ZM13.33349609375,8.95963875C13.33349609375,9.23455875,13.09978609375,9.59561875,12.46545609375,9.912778750000001C11.85607609375,10.21747875,10.98503609375,10.41796875,10.00016609375,10.41796875C10.00016609375,10.41796875,10.00016609375,11.25129875,10.00016609375,11.25129875C11.08636609375,11.25129875,12.09032609375,11.032058750000001,12.83816609375,10.658138749999999C13.56107609375,10.29668875,14.16682609375,9.72024875,14.16682609375,8.95963875C14.16682609375,8.95963875,13.33349609375,8.95963875,13.33349609375,8.95963875C13.33349609375,8.95963875,13.33349609375,8.95963875,13.33349609375,8.95963875ZM10.00016609375,10.41796875C9.01528609375,10.41796875,8.14424609375,10.21747875,7.53484609375,9.912778750000001C6.90052609375,9.59561875,6.66682909375,9.23455875,6.66682909375,8.95963875C6.66682909375,8.95963875,5.83349609375,8.95963875,5.83349609375,8.95963875C5.83349609375,9.72024875,6.43926309375,10.29668875,7.16217609375,10.658138749999999C7.91000609375,11.032058750000001,8.91397609375,11.25129875,10.00016609375,11.25129875C10.00016609375,11.25129875,10.00016609375,10.41796875,10.00016609375,10.41796875C10.00016609375,10.41796875,10.00016609375,10.41796875,10.00016609375,10.41796875ZM6.66682909375,8.95963875C6.66682909375,8.68471875,6.90052609375,8.32364875,7.53484609375,8.006488749999999C8.14424609375,7.70178875,9.01528609375,7.50130175,10.00016609375,7.50130175C10.00016609375,7.50130175,10.00016609375,6.66796875,10.00016609375,6.66796875C8.91397609375,6.66796875,7.91000609375,6.88721575,7.16217609375,7.26113175C6.43926309375,7.62258575,5.83349609375,8.19901875,5.83349609375,8.95963875C5.83349609375,8.95963875,6.66682909375,8.95963875,6.66682909375,8.95963875C6.66682909375,8.95963875,6.66682909375,8.95963875,6.66682909375,8.95963875ZM10.00016609375,7.50130175C10.98503609375,7.50130175,11.85607609375,7.70178875,12.46545609375,8.006488749999999C13.09978609375,8.32364875,13.33349609375,8.68471875,13.33349609375,8.95963875C13.33349609375,8.95963875,14.16682609375,8.95963875,14.16682609375,8.95963875C14.16682609375,8.19901875,13.56107609375,7.62258575,12.83816609375,7.26113175C12.09032609375,6.88721575,11.08636609375,6.66796875,10.00016609375,6.66796875C10.00016609375,6.66796875,10.00016609375,7.50130175,10.00016609375,7.50130175C10.00016609375,7.50130175,10.00016609375,7.50130175,10.00016609375,7.50130175ZM13.33349609375,11.25129875C13.33349609375,11.34584875,13.29211609375,11.467298750000001,13.153626093749999,11.61279875C13.01312609375,11.760468750000001,12.790076093749999,11.91238875,12.48257609375,12.04904875C11.86866609375,12.32192875,10.991366093749999,12.50129875,10.00016609375,12.50129875C10.00016609375,12.50129875,10.00016609375,13.33463875,10.00016609375,13.33463875C11.08003609375,13.33463875,12.077706093749999,13.14092875,12.82103609375,12.810548749999999C13.19216609375,12.64563875,13.51828609375,12.43842875,13.75728609375,12.18729875C13.99832609375,11.93400875,14.16682609375,11.61700875,14.16682609375,11.25129875C14.16682609375,11.25129875,13.33349609375,11.25129875,13.33349609375,11.25129875C13.33349609375,11.25129875,13.33349609375,11.25129875,13.33349609375,11.25129875ZM10.00016609375,12.50129875C9.00896609375,12.50129875,8.13165609375,12.32192875,7.51773609375,12.04904875C7.21025609375,11.91238875,6.98721609375,11.760468750000001,6.84668609375,11.61279875C6.70820409375,11.467298750000001,6.66682909375,11.34584875,6.66682909375,11.25129875C6.66682909375,11.25129875,5.83349609375,11.25129875,5.83349609375,11.25129875C5.83349609375,11.61700875,6.00198809375,11.93400875,6.24302509375,12.18729875C6.48201809375,12.43842875,6.80815409375,12.64563875,7.17928609375,12.810548749999999C7.92260609375,13.14092875,8.92028609375,13.33463875,10.00016609375,13.33463875C10.00016609375,13.33463875,10.00016609375,12.50129875,10.00016609375,12.50129875C10.00016609375,12.50129875,10.00016609375,12.50129875,10.00016609375,12.50129875ZM6.66682909375,11.25129875C6.66682909375,11.25129875,6.66682909375,8.95963875,6.66682909375,8.95963875C6.66682909375,8.95963875,5.83349609375,8.95963875,5.83349609375,8.95963875C5.83349609375,8.95963875,5.83349609375,11.25129875,5.83349609375,11.25129875C5.83349609375,11.25129875,6.66682909375,11.25129875,6.66682909375,11.25129875C6.66682909375,11.25129875,6.66682909375,11.25129875,6.66682909375,11.25129875ZM8.33349609375,12.63729875C8.33349609375,12.63729875,8.33349609375,10.51889875,8.33349609375,10.51889875C8.33349609375,10.51889875,7.50016609375,10.51889875,7.50016609375,10.51889875C7.50016609375,10.51889875,7.50016609375,12.63729875,7.50016609375,12.63729875C7.50016609375,12.63729875,8.33349609375,12.63729875,8.33349609375,12.63729875C8.33349609375,12.63729875,8.33349609375,12.63729875,8.33349609375,12.63729875ZM10.41682609375,12.91796875C10.41682609375,12.91796875,10.41682609375,10.83463875,10.41682609375,10.83463875C10.41682609375,10.83463875,9.58349609375,10.83463875,9.58349609375,10.83463875C9.58349609375,10.83463875,9.58349609375,12.91796875,9.58349609375,12.91796875C9.58349609375,12.91796875,10.41682609375,12.91796875,10.41682609375,12.91796875C10.41682609375,12.91796875,10.41682609375,12.91796875,10.41682609375,12.91796875ZM12.50016609375,12.63729875C12.50016609375,12.63729875,12.50016609375,10.51889875,12.50016609375,10.51889875C12.50016609375,10.51889875,11.66682609375,10.51889875,11.66682609375,10.51889875C11.66682609375,10.51889875,11.66682609375,12.63729875,11.66682609375,12.63729875C11.66682609375,12.63729875,12.50016609375,12.63729875,12.50016609375,12.63729875C12.50016609375,12.63729875,12.50016609375,12.63729875,12.50016609375,12.63729875ZM14.16682609375,11.25129875C14.16682609375,11.25129875,14.16682609375,8.95963875,14.16682609375,8.95963875C14.16682609375,8.95963875,13.33349609375,8.95963875,13.33349609375,8.95963875C13.33349609375,8.95963875,13.33349609375,11.25129875,13.33349609375,11.25129875C13.33349609375,11.25129875,14.16682609375,11.25129875,14.16682609375,11.25129875C14.16682609375,11.25129875,14.16682609375,11.25129875,14.16682609375,11.25129875Z" fill="#FFFFFF" fill-opacity="1"/></g></g></g></svg>