<svg xmlns="http://www.w3.org/2000/svg" xmlns:xlink="http://www.w3.org/1999/xlink" fill="none" version="1.1" width="16.581565856933594" height="16.58338737487793" viewBox="0 0 16.581565856933594 16.58338737487793"><g><path d="M2.97276,10.2753C2.97276,10.2753,2.38352,9.686,2.38352,9.686C2.38352,9.686,2.97276,10.2753,2.97276,10.2753C2.97276,10.2753,2.97276,10.2753,2.97276,10.2753ZM15.0562,1.52546C15.0562,1.52546,15.6455,0.936217,15.6455,0.936217C15.6455,0.936217,15.0562,1.52546,15.0562,1.52546C15.0562,1.52546,15.0562,1.52546,15.0562,1.52546ZM11.7259,1.52207C11.7259,1.52207,12.3152,2.11132,12.3152,2.11132C12.3152,2.11132,11.7259,1.52207,11.7259,1.52207C11.7259,1.52207,11.7259,1.52207,11.7259,1.52207ZM3.63358,3.43612C3.30814,3.76155,3.30814,4.28919,3.63358,4.61462C3.95902,4.94007,4.48666,4.94007,4.81209,4.61462C4.81209,4.61462,3.63358,3.43612,3.63358,3.43612C3.63358,3.43612,3.63358,3.43612,3.63358,3.43612ZM9.3845,3.6989C9.70992,4.02433,10.2376,4.02433,10.563,3.6989C10.8885,3.37347,10.8885,2.84583,10.563,2.52039C10.563,2.52039,9.3845,3.6989,9.3845,3.6989C9.3845,3.6989,9.3845,3.6989,9.3845,3.6989ZM9.44175,2.57766C9.44175,2.57766,10.0311,1.9884,10.0311,1.9884C10.0311,1.9884,10.0311,1.9884,10.0311,1.9884C10.0311,1.9884,9.44175,2.57766,9.44175,2.57766C9.44175,2.57766,9.44175,2.57766,9.44175,2.57766ZM7.04114,1.46397C7.04114,1.46397,6.78362,0.67142,6.78362,0.67142C6.78362,0.67142,6.78362,0.67142,6.78362,0.67142C6.78362,0.67142,7.04114,1.46397,7.04114,1.46397C7.04114,1.46397,7.04114,1.46397,7.04114,1.46397ZM8.0712,1.46397C8.0712,1.46397,8.32872,0.67142,8.32872,0.67142C8.32872,0.67142,8.32872,0.67142,8.32872,0.67142C8.32872,0.67142,8.0712,1.46397,8.0712,1.46397C8.0712,1.46397,8.0712,1.46397,8.0712,1.46397ZM7.31209,5.93612C6.98666,5.61068,6.45902,5.61068,6.13358,5.93612C5.80814,6.26155,5.80814,6.78919,6.13358,7.11462C6.13358,7.11462,7.31209,5.93612,7.31209,5.93612C7.31209,5.93612,7.31209,5.93612,7.31209,5.93612ZM9.46692,10.448C9.79233,10.7734,10.32,10.7734,10.6454,10.448C10.9708,10.1225,10.9708,9.59492,10.6454,9.26942C10.6454,9.26942,9.46692,10.448,9.46692,10.448C9.46692,10.448,9.46692,10.448,9.46692,10.448ZM14.4703,4.26633C14.4648,4.27181,14.4592,4.27728,14.4538,4.28277C14.4483,4.28826,14.4428,4.29376,14.4373,4.29927C14.4318,4.30478,14.4262,4.31029,14.4207,4.31583C14.4152,4.32135,14.4097,4.32689,14.4042,4.33243C14.3986,4.33798,14.393,4.34354,14.3875,4.34911C14.3819,4.35468,14.3763,4.36025,14.3708,4.36583C14.3652,4.37142,14.3596,4.37702,14.3539,4.38263C14.3483,4.38823,14.3428,4.39384,14.3371,4.39947C14.3315,4.40509,14.3258,4.41073,14.3202,4.41637C14.3146,4.42201,14.3089,4.42767,14.3033,4.43333C14.2976,4.43899,14.2919,4.44466,14.2863,4.45034C14.2806,4.45602,14.2748,4.46171,14.2692,4.46741C14.2634,4.47311,14.2577,4.47882,14.252,4.48453C14.2463,4.49025,14.2406,4.49598,14.2348,4.50172C14.2291,4.50745,14.2233,4.5132,14.2176,4.51895C14.2118,4.52471,14.2061,4.53047,14.2003,4.53624C14.1946,4.54202,14.1887,4.5478,14.183,4.55358C14.1772,4.55937,14.1714,4.56518,14.1656,4.57098C14.1597,4.57679,14.1539,4.58261,14.1482,4.58844C14.1423,4.59427,14.1365,4.6001,14.1306,4.60594C14.1248,4.61179,14.1189,4.61764,14.1131,4.6235C14.1072,4.62937,14.1013,4.63523,14.0954,4.64112C14.0896,4.64699,14.0837,4.65288,14.0777,4.65877C14.0719,4.66467,14.066,4.67058,14.0601,4.67649C14.0542,4.68241,14.0483,4.68832,14.0423,4.69426C14.0364,4.70019,14.0304,4.70613,14.0245,4.71208C14.0186,4.71803,14.0126,4.72398,14.0066,4.72995C14.0007,4.73591,13.9947,4.74188,13.9887,4.74787C13.9827,4.75385,13.9767,4.75984,13.9708,4.76583C13.9648,4.77183,13.9587,4.77784,13.9528,4.78386C13.9467,4.78988,13.9407,4.79589,13.9347,4.80193C13.9286,4.80796,13.9226,4.814,13.9165,4.82004C13.9105,4.82609,13.9044,4.83215,13.8983,4.83822C13.8923,4.84427,13.8863,4.85035,13.8802,4.85643C13.8741,4.86251,13.868,4.8686,13.8618,4.87469C13.8558,4.88079,13.8497,4.88689,13.8436,4.89301C13.8374,4.89912,13.8313,4.90524,13.8252,4.91137C13.8191,4.91749,13.8129,4.92363,13.8068,4.92978C13.8007,4.93592,13.7945,4.94207,13.7883,4.94823C13.7822,4.95439,13.776,4.96056,13.7698,4.96673C13.7637,4.97291,13.7575,4.97909,13.7512,4.98528C13.7451,4.99147,13.7389,4.99767,13.7327,5.00388C13.7265,5.01008,13.7203,5.01629,13.7141,5.02251C13.7078,5.02873,13.7016,5.03496,13.6953,5.04119C13.6892,5.04743,13.6829,5.05368,13.6767,5.05993C13.6704,5.06618,13.6642,5.07243,13.6578,5.0787C13.6516,5.08497,13.6453,5.09123,13.6391,5.09752C13.6327,5.1038,13.6265,5.11008,13.6202,5.11638C13.6139,5.12268,13.6076,5.12897,13.6012,5.13528C13.595,5.14159,13.5887,5.14791,13.5823,5.15423C13.576,5.16056,13.5697,5.16688,13.5633,5.17323C13.557,5.17957,13.5507,5.18591,13.5443,5.19226C13.5379,5.19861,13.5316,5.20498,13.5252,5.21133C13.5188,5.2177,13.5125,5.22408,13.5061,5.23046C13.4998,5.23683,13.4933,5.24323,13.4869,5.24962C13.4806,5.25601,13.4742,5.26241,13.4677,5.26882C13.4613,5.27523,13.4549,5.28164,13.4485,5.28806C13.4421,5.29448,13.4357,5.30091,13.4292,5.30734C13.4228,5.31378,13.4163,5.32022,13.4099,5.32667C13.4034,5.33312,13.397,5.33957,13.3905,5.34603C13.3841,5.35249,13.3776,5.35896,13.3712,5.36543C13.3647,5.37191,13.3582,5.37839,13.3517,5.38488C13.3452,5.39137,13.3388,5.39786,13.3323,5.40436C13.3257,5.41086,13.3192,5.41737,13.3127,5.42388C13.3062,5.43039,13.2997,5.43691,13.2932,5.44343C13.2866,5.44996,13.2801,5.45649,13.2735,5.46303C13.267,5.46957,13.2604,5.47612,13.2539,5.48267C13.2473,5.48922,13.2408,5.49578,13.2343,5.50233C13.2277,5.5089,13.2211,5.51547,13.2145,5.52204C13.2079,5.52862,13.2013,5.5352,13.1947,5.54179C13.1882,5.54838,13.1816,5.55497,13.175,5.56157C13.1684,5.56817,13.1618,5.57478,13.1552,5.58138C13.1486,5.588,13.1419,5.59462,13.1353,5.60123C13.1287,5.60786,13.1221,5.61449,13.1154,5.62113C13.1088,5.62776,13.1022,5.6344,13.0955,5.64105C13.0888,5.64769,13.0822,5.65435,13.0756,5.66101C13.0689,5.66767,13.0623,5.67432,13.0556,5.68099C13.0489,5.68767,13.0422,5.69434,13.0356,5.70103C13.0288,5.7077,13.0222,5.71439,13.0155,5.72108C13.0088,5.72778,13.0021,5.73447,12.9954,5.74118C12.9887,5.74788,12.982,5.75458,12.9752,5.7613C12.9686,5.76801,12.9618,5.77473,12.9551,5.78146C12.9484,5.78818,12.9417,5.79491,12.9349,5.80164C12.9282,5.80838,12.9214,5.81513,12.9147,5.82187C12.9079,5.82862,12.9012,5.83537,12.8944,5.84212C12.8877,5.84888,12.8809,5.85564,12.8742,5.86241C12.8674,5.86917,12.8606,5.87594,12.8538,5.88273C12.8471,5.8895,12.8403,5.89628,12.8335,5.90307C12.8267,5.90986,12.8199,5.91665,12.8131,5.92344C12.8063,5.93024,12.7995,5.93704,12.7927,5.94385C12.7859,5.95066,12.7791,5.95747,12.7723,5.96428C12.7655,5.9711,12.7587,5.97793,12.7518,5.98475C12.745,5.99158,12.7382,5.99841,12.7313,6.00525C12.7245,6.01208,12.7177,6.01893,12.7108,6.02577C12.7039,6.03262,12.6971,6.03947,12.6902,6.04632C12.6834,6.05318,12.6765,6.06003,12.6697,6.0669C12.6628,6.07377,12.6559,6.08063,12.6491,6.08751C12.6422,6.09438,12.6353,6.10126,12.6284,6.10814C12.6216,6.11503,12.6147,6.12191,12.6077,6.1288C12.6008,6.13569,12.594,6.14259,12.5871,6.14949C12.5802,6.15639,12.5732,6.16329,12.5663,6.1702C12.5594,6.17711,12.5526,6.18403,12.5456,6.19094C12.5387,6.19786,12.5317,6.20478,12.5248,6.21171C12.5179,6.21863,12.511,6.22557,12.5041,6.2325C12.4972,6.23943,12.4902,6.24638,12.4832,6.25332C12.4763,6.26026,12.4693,6.2672,12.4624,6.27416C12.4555,6.28111,12.4485,6.28806,12.4416,6.29502C12.4346,6.30198,12.4277,6.30894,12.4207,6.31591C12.4137,6.32288,12.4067,6.32984,12.3997,6.33682C12.3927,6.34379,12.3858,6.35078,12.3788,6.35776C12.3718,6.36473,12.3648,6.37173,12.3578,6.37872C12.3508,6.3857,12.3438,6.3927,12.3368,6.39969C12.3299,6.40669,12.3229,6.41369,12.3158,6.4207C12.3088,6.4277,12.3018,6.43471,12.2948,6.44173C12.2878,6.44873,12.2808,6.45575,12.2738,6.46277C12.2668,6.46978,12.2598,6.47681,12.2528,6.48383C12.2457,6.49086,12.2387,6.49789,12.2317,6.50493C12.2246,6.51196,12.2176,6.51899,12.2105,6.52603C12.2035,6.53308,12.1964,6.54012,12.1894,6.54717C12.1823,6.55421,12.1753,6.56126,12.1683,6.56832C12.1612,6.57537,12.1542,6.58243,12.1471,6.58948C12.14,6.59654,12.133,6.60361,12.1259,6.61067C12.1188,6.61773,12.1117,6.62481,12.1047,6.63188C12.0976,6.63895,12.0906,6.64603,12.0835,6.6531C12.0764,6.66018,12.0693,6.66727,12.0622,6.67435C12.0552,6.68143,12.0481,6.68852,12.041,6.69561C12.0338,6.7027,12.0267,6.70979,12.0197,6.71689C12.0126,6.72398,12.0055,6.73108,11.9984,6.73818C11.9913,6.74529,11.9842,6.75239,11.9771,6.7595C11.97,6.76661,11.9628,6.77372,11.9557,6.78083C11.9486,6.78794,11.9415,6.79506,11.9344,6.80218C11.9272,6.80929,11.9202,6.81642,11.913,6.82354C11.9059,6.83067,11.8988,6.83779,11.8917,6.84492C11.8845,6.85205,11.8774,6.85918,11.8703,6.86631C11.8631,6.87344,11.856,6.88058,11.8488,6.88772C11.8418,6.89486,11.8346,6.902,11.8274,6.90914C11.8202,6.91628,11.8132,6.92343,11.806,6.93058C11.7988,6.93773,11.7917,6.94488,11.7845,6.95203C11.7774,6.95918,11.7702,6.96634,11.7631,6.9735C11.7559,6.98065,11.7488,6.98782,11.7416,6.99498C11.7344,7.00213,11.7272,7.0093,11.7201,7.01647C11.7129,7.02363,11.7058,7.0308,11.6986,7.03797C11.6914,7.04514,11.6842,7.05231,11.6771,7.05948C11.6699,7.06666,11.6628,7.07383,11.6556,7.08102C11.6484,7.08819,11.6412,7.09537,11.634,7.10255C11.6268,7.10973,11.6197,7.11692,11.6125,7.1241C11.6052,7.13129,11.5981,7.13848,11.5909,7.14567C11.5837,7.15285,11.5765,7.16004,11.5693,7.16723C11.5622,7.17443,11.5549,7.18163,11.5478,7.18882C11.5406,7.19602,11.5333,7.20321,11.5262,7.21041C11.519,7.21761,11.5118,7.22481,11.5046,7.23202C11.4973,7.23922,11.4902,7.24642,11.4829,7.25363C11.4757,7.26083,11.4685,7.26803,11.4613,7.27524C11.4541,7.28245,11.4469,7.28966,11.4397,7.29688C11.4325,7.30408,11.4252,7.31129,11.4181,7.31851C11.4108,7.32573,11.4037,7.33294,11.3964,7.34016C11.3892,7.34737,11.382,7.35459,11.3748,7.36181C11.3676,7.36902,11.3603,7.37624,11.3531,7.38347C11.3459,7.39068,11.3387,7.39791,11.3314,7.40513C11.3243,7.41236,11.317,7.41958,11.3097,7.42681C11.3025,7.43403,11.2953,7.44126,11.2881,7.44848C11.2808,7.45572,11.2737,7.46294,11.2664,7.47017C11.2592,7.4774,11.2519,7.48463,11.2447,7.49186C11.2375,7.49909,11.2302,7.50633,11.223,7.51356C11.2157,7.52079,11.2086,7.52803,11.2013,7.53526C11.1941,7.54249,11.1868,7.54973,11.1796,7.55697C11.1723,7.5642,11.1652,7.57143,11.1579,7.57868C11.1507,7.58591,11.1434,7.59315,11.1362,7.60039C11.1289,7.60763,11.1217,7.61487,11.1145,7.62211C11.1072,7.62934,11.1,7.63658,11.0927,7.64383C11.0855,7.65107,11.0783,7.65831,11.071,7.66555C11.0637,7.67279,11.0565,7.68003,11.0493,7.68728C11.0421,7.69452,11.0348,7.70176,11.0276,7.709C11.0203,7.71625,11.0131,7.72349,11.0058,7.73073C10.9986,7.73798,10.9913,7.74523,10.9841,7.75247C10.9768,7.75971,10.9696,7.76696,10.9623,7.7742C10.9551,7.78144,10.9479,7.78869,10.9407,7.79593C10.9334,7.80318,10.9262,7.81043,10.9189,7.81767C10.9117,7.82492,10.9044,7.83216,10.8972,7.8394C10.8899,7.84665,10.8827,7.85389,10.8754,7.86114C10.8682,7.86838,10.8609,7.87563,10.8537,7.88288C10.8464,7.89012,10.8392,7.89736,10.832,7.90461C10.8247,7.91185,10.8175,7.91909,10.8103,7.92634C10.803,7.93358,10.7958,7.94083,10.7885,7.94807C10.7812,7.95532,10.774,7.96256,10.7667,7.9698C10.7595,7.97704,10.7522,7.98428,10.745,7.99153C10.7378,7.99877,10.7306,8.00601,10.7233,8.01325C10.7161,8.02049,10.7088,8.02773,10.7016,8.03498C10.6943,8.04222,10.6871,8.04945,10.6799,8.05669C10.6727,8.06393,10.6654,8.07117,10.6582,8.07841C10.6509,8.08565,10.6437,8.09288,10.6364,8.10012C10.6292,8.10736,10.622,8.11459,10.6147,8.12183C10.6075,8.12907,10.6003,8.1363,10.593,8.14353C10.5858,8.15077,10.5786,8.158,10.5713,8.16523C10.5641,8.17246,10.5569,8.17969,10.5497,8.18693C10.5424,8.19415,10.5352,8.20138,10.5279,8.20861C10.5208,8.21584,10.5135,8.22307,10.5062,8.23029C10.4991,8.23752,10.4918,8.24474,10.4846,8.25197C10.4773,8.25919,10.4702,8.26642,10.4629,8.27364C10.4557,8.28086,10.4485,8.28808,10.4412,8.2953C10.4341,8.30253,10.4268,8.30974,10.4196,8.31696C10.4124,8.32417,10.4052,8.33139,10.398,8.33861C10.3907,8.34583,10.3835,8.35303,10.3763,8.36025C10.3691,8.36746,10.3619,8.37468,10.3547,8.38188C10.3475,8.38909,10.3403,8.3963,10.3331,8.40351C10.3258,8.41071,10.3187,8.41792,10.3114,8.42513C10.3043,8.43233,10.297,8.43953,10.2898,8.44673C10.2827,8.45393,10.2754,8.46112,10.2682,8.46832C10.2611,8.47552,10.2538,8.48272,10.2467,8.48991C10.2395,8.49711,10.2323,8.5043,10.2251,8.51149C10.2179,8.51868,10.2107,8.52587,10.2035,8.53306C10.1963,8.54024,10.1892,8.54743,10.1819,8.55461C10.1748,8.56179,10.1676,8.56898,10.1604,8.57616C10.1533,8.58333,10.1461,8.59052,10.1389,8.59769C10.1317,8.60487,10.1245,8.61204,10.1173,8.61921C10.1102,8.62638,10.103,8.63355,10.0958,8.64073C10.0887,8.64789,10.0815,8.65506,10.0743,8.66222C10.0672,8.66938,10.06,8.67654,10.0528,8.6837C10.0457,8.69087,10.0386,8.69802,10.0314,8.70518C10.0243,8.71233,10.0171,8.71948,10.0099,8.72663C10.0028,8.73378,9.99567,8.74093,9.9885,8.74808C9.98133,8.75523,9.97417,8.76237,9.96708,8.76951C9.95992,8.77665,9.95275,8.78378,9.94567,8.79093C9.9385,8.79806,9.93142,8.80519,9.92425,8.81232C9.91708,8.81946,9.91,8.82658,9.90283,8.83371C9.89575,8.84083,9.88858,8.84796,9.8815,8.85507C9.87433,8.8622,9.86725,8.86932,9.86017,8.87643C9.853,8.88355,9.84592,8.89066,9.83883,8.89778C9.83167,8.90488,9.82458,8.91199,9.8175,8.91909C9.81033,8.9262,9.80325,8.9333,9.79617,8.9404C9.78908,8.9475,9.782,8.95459,9.77492,8.96169C9.76775,8.96878,9.76067,8.97588,9.75358,8.98296C9.7465,8.99005,9.73942,8.99713,9.73233,9.00421C9.72525,9.01129,9.71817,9.01838,9.71108,9.02545C9.70408,9.03253,9.697,9.03959,9.68992,9.04667C9.68283,9.05373,9.67575,9.0608,9.66867,9.06786C9.66167,9.07493,9.65458,9.08198,9.6475,9.08904C9.6405,9.09609,9.63342,9.10315,9.62633,9.1102C9.61933,9.11725,9.61225,9.12429,9.60525,9.13134C9.59817,9.13838,9.59117,9.14543,9.58408,9.15246C9.57708,9.15949,9.57,9.16653,9.563,9.17358C9.556,9.18058,9.54892,9.18758,9.54192,9.19467C9.53492,9.20167,9.52792,9.20867,9.52092,9.21567C9.51383,9.22267,9.50683,9.22975,9.49983,9.23675C9.49283,9.24375,9.48583,9.25075,9.47883,9.25775C9.47183,9.26475,9.46483,9.27175,9.45783,9.27875C9.45083,9.28575,9.44383,9.29275,9.43683,9.29967C9.42992,9.30667,9.42292,9.31367,9.41592,9.32067C9.40892,9.32767,9.402,9.33458,9.395,9.34158C9.388,9.34858,9.38108,9.3555,9.37408,9.3625C9.36717,9.36942,9.36017,9.37642,9.35325,9.38333C9.34625,9.39033,9.33933,9.39725,9.33233,9.40417C9.32542,9.41117,9.3185,9.41808,9.3115,9.425C9.30458,9.432,9.29767,9.43892,9.29075,9.44583C9.28383,9.45275,9.27692,9.45967,9.27,9.46658C9.263,9.4735,9.25608,9.48042,9.24917,9.48733C9.24233,9.49425,9.23542,9.50117,9.2285,9.50808C9.22158,9.515,9.21467,9.52192,9.20775,9.52875C9.20092,9.53567,9.194,9.54258,9.18708,9.5495C9.18025,9.55633,9.17333,9.56325,9.16646,9.57008C9.15958,9.577,9.15271,9.58383,9.14584,9.59075C9.13897,9.59758,9.13211,9.6045,9.12524,9.61133C9.11838,9.61817,9.11153,9.625,9.10468,9.63192C9.09783,9.63875,9.09098,9.64558,9.08414,9.65242C9.0773,9.65925,9.07047,9.66608,9.06363,9.67292C9.0568,9.67975,9.04997,9.68658,9.04316,9.69342C9.03633,9.70025,9.02952,9.70708,9.0227,9.71383C9.01589,9.72067,9.00908,9.7275,9.00228,9.73425C8.99548,9.74108,8.98868,9.74792,8.98189,9.75467C8.9751,9.7615,8.96832,9.76825,8.96153,9.775C8.95475,9.78183,8.94798,9.78858,8.9412,9.79533C8.93443,9.80217,8.92766,9.80892,8.9209,9.81567C8.91414,9.82242,8.90738,9.82917,8.90063,9.83592C8.89388,9.84267,8.88713,9.84942,8.88039,9.85617C8.87365,9.86292,8.86692,9.86967,8.86019,9.87642C8.85346,9.88308,8.84673,9.88983,8.84002,9.89658C8.83329,9.90325,8.82658,9.91,8.81987,9.91667C8.81317,9.92342,8.80646,9.93008,8.79977,9.93683C8.79307,9.9435,8.78638,9.95017,8.77969,9.95692C8.773,9.96358,8.76632,9.97025,8.75965,9.97692C8.75297,9.98358,8.7463,9.99025,8.73964,9.99692C8.73298,10.0036,8.72632,10.0103,8.71967,10.0169C8.71302,10.0236,8.70637,10.0302,8.69972,10.0368C8.69308,10.0435,8.68645,10.0501,8.67982,10.0568C8.67319,10.0634,8.66657,10.07,8.65995,10.0766C8.65333,10.0833,8.64672,10.0898,8.64012,10.0964C8.63351,10.1031,8.62691,10.1097,8.62032,10.1163C8.61372,10.1228,8.60713,10.1294,8.60056,10.136C8.59398,10.1426,8.5874,10.1492,8.58083,10.1558C8.57426,10.1623,8.5677,10.1688,8.56114,10.1754C8.55458,10.182,8.54803,10.1885,8.54149,10.1951C8.53494,10.2016,8.52841,10.2082,8.52188,10.2147C8.51534,10.2213,8.50882,10.2278,8.5023,10.2343C8.49577,10.2408,8.48927,10.2473,8.48276,10.2538C8.47625,10.2603,8.46975,10.2668,8.46326,10.2733C8.45677,10.2798,8.45027,10.2863,8.4438,10.2928C8.43732,10.2993,8.43084,10.3057,8.42437,10.3122C8.41791,10.3187,8.41144,10.3251,8.40499,10.3316C8.39853,10.338,8.39209,10.3445,8.38565,10.3509C8.37921,10.3573,8.37278,10.3638,8.36634,10.3702C8.35992,10.3767,8.3535,10.3831,8.34708,10.3895C8.34067,10.3959,8.33426,10.4023,8.32786,10.4087C8.32146,10.4151,8.31507,10.4215,8.30868,10.4279C8.30229,10.4343,8.29592,10.4407,8.28954,10.447C8.28317,10.4534,8.2768,10.4598,8.27044,10.4662C8.26408,10.4725,8.25773,10.4788,8.25138,10.4852C8.24504,10.4915,8.23871,10.4978,8.23237,10.5042C8.22604,10.5105,8.21972,10.5168,8.2134,10.5232C8.20709,10.5295,8.20077,10.5358,8.19447,10.5421C8.18818,10.5484,8.18188,10.5547,8.17559,10.561C8.16931,10.5673,8.16302,10.5735,8.15675,10.5798C8.15048,10.5861,8.14422,10.5923,8.13796,10.5986C8.1317,10.6048,8.12545,10.6111,8.11921,10.6173C8.11297,10.6236,8.10672,10.6298,8.1005,10.6361C8.09427,10.6423,8.08805,10.6485,8.08184,10.6547C8.07562,10.6609,8.06942,10.6672,8.06322,10.6733C8.05702,10.6796,8.05083,10.6858,8.04465,10.6919C8.03847,10.6981,8.03229,10.7043,8.02612,10.7104C8.01996,10.7166,8.0138,10.7228,8.00765,10.7289C8.0015,10.7351,7.99536,10.7413,7.98922,10.7473C7.98308,10.7535,7.97696,10.7596,7.97083,10.7658C7.96472,10.7718,7.95861,10.778,7.9525,10.7841C7.9464,10.7902,7.9403,10.7963,7.93421,10.8023C7.92812,10.8084,7.92204,10.8145,7.91597,10.8206C7.9099,10.8267,7.90383,10.8328,7.89778,10.8388C7.89173,10.8448,7.88567,10.8509,7.87963,10.8569C7.8736,10.863,7.86757,10.869,7.86154,10.875C7.85552,10.8811,7.84951,10.8871,7.8435,10.8931C7.83749,10.8991,7.83149,10.9051,7.8255,10.9111C7.81952,10.9171,7.81353,10.923,7.80756,10.929C7.80158,10.935,7.79562,10.9409,7.78967,10.9469C7.78371,10.9528,7.77776,10.9588,7.77182,10.9648C7.76588,10.9707,7.75995,10.9766,7.75403,10.9825C7.74811,10.9885,7.74219,10.9943,7.73629,11.0003C7.73038,11.0062,7.72448,11.0121,7.7186,11.018C7.71271,11.0238,7.70683,11.0298,7.70096,11.0356C7.69509,11.0415,7.68923,11.0473,7.68337,11.0532C7.67753,11.0591,7.67168,11.0649,7.66585,11.0707C7.66001,11.0766,7.65418,11.0824,7.64837,11.0882C7.64255,11.094,7.63674,11.0998,7.63094,11.1057C7.62514,11.1114,7.61935,11.1173,7.61357,11.123C7.60779,11.1287,7.60202,11.1346,7.59626,11.1403C7.59049,11.1461,7.58473,11.1518,7.57899,11.1576C7.57325,11.1633,7.56751,11.1691,7.56178,11.1748C7.55606,11.1805,7.55034,11.1863,7.54463,11.1919C7.53892,11.1977,7.53323,11.2033,7.52753,11.209C7.52184,11.2148,7.51617,11.2204,7.51049,11.2261C7.50482,11.2318,7.49916,11.2374,7.49351,11.2431C7.48785,11.2488,7.48221,11.2543,7.47657,11.26C7.47094,11.2656,7.46532,11.2712,7.45971,11.2768C7.45409,11.2825,7.44848,11.2881,7.44289,11.2937C7.43729,11.2992,7.43171,11.3048,7.42613,11.3104C7.42056,11.316,7.41499,11.3216,7.40943,11.3272C7.40387,11.3327,7.39832,11.3383,7.39279,11.3438C7.38725,11.3493,7.38172,11.3548,7.37621,11.3603C7.37069,11.3659,7.36518,11.3714,7.35968,11.3769C7.35418,11.3824,7.3487,11.3878,7.34322,11.3933C7.33774,11.3988,7.33227,11.4043,7.32681,11.4097C7.32135,11.4153,7.31591,11.4207,7.31047,11.4261C7.30503,11.4315,7.2996,11.437,7.29418,11.4424C7.28876,11.4478,7.28335,11.4533,7.27795,11.4586C7.27256,11.464,7.26717,11.4694,7.26179,11.4748C7.25641,11.4802,7.25104,11.4855,7.24568,11.4909C7.24032,11.4963,7.23498,11.5016,7.22964,11.5069C7.22431,11.5123,7.21898,11.5176,7.21367,11.5229C7.20835,11.5283,7.20304,11.5335,7.19774,11.5388C7.19245,11.5441,7.18717,11.5494,7.18189,11.5547C7.17662,11.5599,7.17135,11.5653,7.1661,11.5705C7.16084,11.5758,7.1556,11.581,7.15037,11.5862C7.14513,11.5914,7.13991,11.5967,7.1347,11.6018C7.12949,11.6071,7.12429,11.6123,7.1191,11.6175C7.11391,11.6227,7.10873,11.6278,7.10356,11.633C7.09839,11.6382,7.09323,11.6433,7.08808,11.6485C7.08294,11.6537,7.0778,11.6588,7.07267,11.6639C7.06755,11.669,7.06243,11.6742,7.05733,11.6793C7.05223,11.6843,7.04713,11.6894,7.04205,11.6945C7.03697,11.6996,7.0319,11.7047,7.02684,11.7098C7.02178,11.7148,7.01673,11.7198,7.01169,11.7248C7.00666,11.7299,7.00163,11.7349,6.99662,11.7399C6.9916,11.745,6.98659,11.75,6.9816,11.755C6.97661,11.76,6.97163,11.7649,6.96665,11.7699C6.96168,11.7749,6.95672,11.7798,6.95178,11.7848C6.94683,11.7898,6.94189,11.7947,6.93697,11.7996C6.93204,11.8045,6.92712,11.8094,6.92222,11.8143C6.91732,11.8193,6.91242,11.8242,6.90755,11.829C6.90267,11.8339,6.8978,11.8388,6.89294,11.8437C6.88808,11.8485,6.88324,11.8533,6.8784,11.8582C6.87357,11.863,6.86875,11.8678,6.86393,11.8727C6.85913,11.8774,6.85432,11.8822,6.84954,11.887C6.84475,11.8918,6.83998,11.8966,6.83521,11.9013C6.83045,11.9061,6.8257,11.9108,6.82096,11.9156C6.81622,11.9203,6.81148,11.9251,6.80677,11.9298C6.80205,11.9345,6.79735,11.9392,6.79266,11.9439C6.78796,11.9486,6.78328,11.9532,6.77861,11.9579C6.77394,11.9627,6.76928,11.9673,6.76464,11.9719C6.75999,11.9766,6.75536,11.9812,6.75074,11.9858C6.74612,11.9904,6.74151,11.9951,6.73692,11.9997C6.73232,12.0043,6.72773,12.0088,6.72316,12.0134C6.71858,12.018,6.71402,12.0225,6.70948,12.0271C6.70493,12.0317,6.70039,12.0362,6.69588,12.0407C6.69135,12.0452,6.68683,12.0498,6.68234,12.0543C6.67784,12.0588,6.67335,12.0633,6.66887,12.0677C6.6644,12.0722,6.65994,12.0767,6.65549,12.0811C6.65104,12.0855,6.64661,12.09,6.64218,12.0944C6.63776,12.0988,6.63335,12.1033,6.62895,12.1076C6.62455,12.112,6.62016,12.1164,6.61579,12.1208C6.61142,12.1252,6.60705,12.1295,6.6027,12.1338C6.59836,12.1383,6.59402,12.1426,6.5897,12.1468C6.58537,12.1512,6.58107,12.1555,6.57677,12.1598C6.57247,12.1641,6.56818,12.1684,6.56391,12.1727C6.55964,12.1769,6.55538,12.1812,6.55113,12.1854C6.54688,12.1897,6.54265,12.1939,6.53843,12.1982C6.53422,12.2023,6.53001,12.2066,6.52581,12.2108C6.52162,12.2149,6.51743,12.2192,6.51327,12.2233C6.5091,12.2275,6.50494,12.2316,6.5008,12.2358C6.49666,12.2399,6.49253,12.244,6.48842,12.2482C6.4843,12.2522,6.4802,12.2563,6.47611,12.2605C6.47202,12.2646,6.46794,12.2687,6.46388,12.2727C6.45982,12.2768,6.45577,12.2808,6.45173,12.2848C6.44769,12.2888,6.44367,12.2929,6.43967,12.2969C6.43565,12.3009,6.43166,12.3049,6.42767,12.3089C6.42369,12.3128,6.41972,12.3168,6.41577,12.3208C6.41182,12.3248,6.40788,12.3287,6.40394,12.3326C6.40002,12.3366,6.3961,12.3405,6.3922,12.3443C6.3883,12.3483,6.38441,12.3522,6.38053,12.356C6.37667,12.3599,6.3728,12.3638,6.36896,12.3676C6.36511,12.3714,6.36127,12.3752,6.35746,12.3791C6.35364,12.3829,6.34983,12.3868,6.34604,12.3905C6.34225,12.3943,6.33847,12.3981,6.33471,12.4018C6.33095,12.4056,6.3272,12.4093,6.32347,12.4131C6.31973,12.4168,6.31601,12.4206,6.3123,12.4243C6.30859,12.428,6.3049,12.4317,6.30122,12.4353C6.29754,12.439,6.29387,12.4427,6.29023,12.4463C6.28657,12.45,6.28293,12.4537,6.27931,12.4573C6.27569,12.4609,6.27208,12.4645,6.26848,12.4681C6.26489,12.4717,6.26131,12.4753,6.25774,12.4788C6.25417,12.4824,6.25062,12.4859,6.24709,12.4895C6.24355,12.493,6.24003,12.4965,6.23652,12.5001C6.23302,12.5036,6.22952,12.5071,6.22604,12.5105C6.22256,12.514,6.21909,12.5175,6.21564,12.5209C6.21219,12.5244,6.20876,12.5278,6.20533,12.5313C6.20192,12.5347,6.19851,12.5381,6.19512,12.5414C6.19172,12.5448,6.18834,12.5483,6.18498,12.5516C6.18162,12.5549,6.17827,12.5583,6.17493,12.5617C6.1716,12.565,6.16828,12.5683,6.16498,12.5716C6.16167,12.5749,6.15839,12.5782,6.15512,12.5814C6.15184,12.5848,6.14858,12.588,6.14533,12.5912C6.14209,12.5945,6.13886,12.5977,6.13565,12.6009C6.13243,12.6042,6.12923,12.6073,6.12605,12.6105C6.12286,12.6137,6.11969,12.6169,6.11654,12.62C6.11338,12.6232,6.11024,12.6263,6.10712,12.6294C6.10399,12.6326,6.10088,12.6357,6.09779,12.6388C6.0947,12.6418,6.09162,12.6449,6.08856,12.648C6.08549,12.6511,6.08244,12.6541,6.07941,12.6572C6.07637,12.6602,6.07336,12.6632,6.07036,12.6663C6.06736,12.6693,6.06437,12.6722,6.0614,12.6752C6.05842,12.6782,6.05547,12.6811,6.05253,12.684C6.04958,12.687,6.04666,12.6899,6.04375,12.6928C6.04084,12.6958,6.03795,12.6986,6.03507,12.7015C6.03219,12.7044,6.02932,12.7073,6.02648,12.7101C6.02363,12.7129,6.0208,12.7157,6.01798,12.7186C6.01517,12.7214,6.01237,12.7242,6.00958,12.727C6.0068,12.7298,6.00403,12.7325,6.00127,12.7353C5.99852,12.7381,5.99578,12.7408,5.99307,12.7435C5.99034,12.7463,5.98764,12.7489,5.98495,12.7516C5.98226,12.7543,5.97958,12.757,5.97692,12.7597C5.97427,12.7623,5.97162,12.7649,5.969,12.7676C5.96637,12.7702,5.96377,12.7728,5.96117,12.7754C5.95858,12.778,5.956,12.7806,5.95344,12.7832C5.95088,12.7857,5.94833,12.7882,5.94581,12.7908C5.94327,12.7933,5.94076,12.7958,5.93827,12.7983C5.93577,12.8008,5.93329,12.8033,5.93082,12.8057C5.92836,12.8082,5.92591,12.8107,5.92348,12.8131C5.92105,12.8155,5.91863,12.8179,5.91623,12.8203C5.91383,12.8228,5.91146,12.8251,5.90909,12.8275C5.90672,12.8298,5.90437,12.8322,5.90204,12.8345C5.89971,12.8368,5.89739,12.8392,5.89509,12.8415C5.89279,12.8438,5.89051,12.8461,5.88824,12.8483C5.88597,12.8506,5.88372,12.8528,5.88149,12.8551C5.87926,12.8573,5.87704,12.8595,5.87484,12.8617C5.87264,12.8639,5.87046,12.8661,5.86829,12.8683C5.86612,12.8704,5.86397,12.8726,5.86185,12.8748C5.85972,12.8768,5.8576,12.879,5.8555,12.8811C5.8534,12.8832,5.85132,12.8853,5.84925,12.8873C5.84719,12.8894,5.84514,12.8914,5.84311,12.8934C5.84107,12.8955,5.83907,12.8975,5.83707,12.8995C5.83507,12.9015,5.83309,12.9035,5.83113,12.9054C5.82917,12.9074,5.82722,12.9093,5.82529,12.9113C5.82337,12.9132,5.82145,12.9151,5.81956,12.917C5.81767,12.9189,5.81579,12.9208,5.81393,12.9227C5.81207,12.9245,5.81023,12.9263,5.80841,12.9282C5.80658,12.93,5.80477,12.9318,5.80298,12.9336C5.80119,12.9353,5.79942,12.9372,5.79767,12.9389C5.79591,12.9407,5.79417,12.9424,5.79245,12.9441C5.79073,12.9458,5.78903,12.9475,5.78735,12.9492C5.78566,12.9509,5.78399,12.9526,5.78234,12.9543C5.78069,12.9558,5.77907,12.9575,5.77745,12.9591C5.77583,12.9608,5.77424,12.9623,5.77266,12.9639C5.77108,12.9655,5.76952,12.9671,5.76797,12.9686C5.76643,12.9702,5.76491,12.9717,5.7634,12.9732C5.76189,12.9747,5.7604,12.9762,5.75893,12.9777C5.75746,12.9791,5.75601,12.9806,5.75457,12.982C5.75313,12.9834,5.75172,12.9848,5.75032,12.9862C5.74892,12.9877,5.74753,12.989,5.74617,12.9904C5.74481,12.9918,5.74346,12.9931,5.74213,12.9944C5.7408,12.9958,5.73949,12.9971,5.7382,12.9983C5.73691,12.9997,5.73564,13.0009,5.73438,13.0022C5.73313,13.0034,5.73189,13.0047,5.73067,13.0059C5.72946,13.0071,5.72826,13.0083,5.72707,13.0095C5.72589,13.0107,5.72473,13.0118,5.72358,13.013C5.72244,13.0142,5.72132,13.0153,5.72021,13.0163C5.7191,13.0175,5.71801,13.0186,5.71693,13.0197C5.71693,13.0197,6.89545,14.1982,6.89545,14.1982C6.89652,14.1971,6.89761,14.196,6.89872,14.1948C6.89982,14.1937,6.90095,14.1927,6.90209,14.1915C6.90324,14.1903,6.9044,14.1892,6.90558,14.188C6.90677,14.1868,6.90797,14.1856,6.90918,14.1844C6.9104,14.1832,6.91164,14.1819,6.91289,14.1807C6.91415,14.1794,6.91543,14.1782,6.91672,14.1769C6.91801,14.1756,6.91932,14.1743,6.92064,14.1729C6.92197,14.1716,6.92332,14.1703,6.92468,14.1689C6.92604,14.1676,6.92742,14.1662,6.92882,14.1648C6.93022,14.1633,6.93164,14.1619,6.93308,14.1605C6.93452,14.1591,6.93597,14.1576,6.93744,14.1562C6.93892,14.1547,6.9404,14.1532,6.94191,14.1517C6.94342,14.1502,6.94494,14.1487,6.94648,14.1471C6.94803,14.1456,6.94959,14.144,6.95117,14.1424C6.95275,14.1408,6.95435,14.1393,6.95596,14.1377C6.95757,14.136,6.95921,14.1344,6.96086,14.1328C6.96251,14.1311,6.96418,14.1294,6.96586,14.1278C6.96754,14.1261,6.96924,14.1243,6.97097,14.1227C6.97268,14.1209,6.97442,14.1192,6.97617,14.1174C6.97793,14.1157,6.97971,14.1139,6.98149,14.1121C6.98328,14.1103,6.98509,14.1085,6.98692,14.1067C6.98874,14.1048,6.99058,14.103,6.99244,14.1012C6.9943,14.0992,6.99617,14.0974,6.99808,14.0955C6.99997,14.0937,7.00187,14.0918,7.00381,14.0898C7.00573,14.0878,7.00767,14.0859,7.00964,14.0839C7.0116,14.082,7.01358,14.08,7.01558,14.078C7.01757,14.076,7.01959,14.074,7.02162,14.072C7.02365,14.0699,7.0257,14.0679,7.02777,14.0658C7.02983,14.0638,7.03191,14.0617,7.03401,14.0596C7.03611,14.0575,7.03823,14.0553,7.04036,14.0532C7.04249,14.0511,7.04464,14.0489,7.04681,14.0468C7.04897,14.0446,7.05116,14.0424,7.05336,14.0403C7.05556,14.038,7.05778,14.0358,7.06,14.0336C7.06223,14.0313,7.06448,14.0291,7.06675,14.0268C7.06902,14.0246,7.0713,14.0223,7.0736,14.02C7.0759,14.0177,7.07822,14.0153,7.08055,14.013C7.08288,14.0107,7.08523,14.0083,7.0876,14.006C7.08997,14.0036,7.09235,14.0013,7.09475,13.9988C7.09714,13.9964,7.09956,13.994,7.10199,13.9916C7.10442,13.9892,7.10688,13.9867,7.10933,13.9843C7.1118,13.9818,7.11428,13.9793,7.11678,13.9768C7.11928,13.9743,7.12178,13.9718,7.12432,13.9692C7.12684,13.9668,7.12939,13.9642,7.13195,13.9617C7.13452,13.9591,7.13709,13.9565,7.13968,13.9539C7.14227,13.9513,7.14489,13.9487,7.14752,13.9461C7.15014,13.9434,7.15278,13.9408,7.15544,13.9382C7.1581,13.9355,7.16078,13.9328,7.16346,13.9302C7.16615,13.9274,7.16886,13.9248,7.17157,13.922C7.1743,13.9193,7.17703,13.9166,7.17979,13.9138C7.18254,13.9111,7.18531,13.9083,7.18809,13.9055C7.19088,13.9028,7.19368,13.8999,7.1965,13.8971C7.19932,13.8943,7.20214,13.8914,7.20499,13.8886C7.20784,13.8858,7.2107,13.8829,7.21358,13.88C7.21646,13.8772,7.21935,13.8742,7.22227,13.8713C7.22517,13.8684,7.2281,13.8655,7.23104,13.8626C7.23398,13.8596,7.23693,13.8567,7.23991,13.8537C7.24288,13.8507,7.24587,13.8478,7.24887,13.8448C7.25187,13.8418,7.25489,13.8387,7.25793,13.8357C7.26096,13.8327,7.264,13.8296,7.26707,13.8265C7.27013,13.8235,7.27321,13.8204,7.2763,13.8173C7.2794,13.8142,7.28251,13.8111,7.28563,13.808C7.28876,13.8048,7.29189,13.8017,7.29505,13.7985C7.2982,13.7954,7.30137,13.7922,7.30456,13.789C7.30774,13.7858,7.31094,13.7827,7.31416,13.7794C7.31738,13.7762,7.3206,13.773,7.32385,13.7698C7.32709,13.7665,7.33035,13.7633,7.33362,13.76C7.3369,13.7567,7.34019,13.7534,7.34349,13.7501C7.3468,13.7468,7.35012,13.7435,7.35345,13.7402C7.35678,13.7368,7.36013,13.7335,7.36349,13.7301C7.36686,13.7267,7.37023,13.7233,7.37362,13.72C7.37702,13.7166,7.38042,13.7132,7.38385,13.7098C7.38727,13.7063,7.3907,13.7029,7.39416,13.6994C7.39761,13.696,7.40107,13.6925,7.40455,13.689C7.40803,13.6856,7.41152,13.6821,7.41503,13.6786C7.41854,13.6751,7.42207,13.6715,7.4256,13.668C7.42914,13.6644,7.43269,13.6609,7.43626,13.6573C7.43983,13.6538,7.4434,13.6502,7.447,13.6466C7.45059,13.643,7.4542,13.6394,7.45782,13.6357C7.46144,13.6322,7.46508,13.6285,7.46873,13.6248C7.47238,13.6212,7.47605,13.6175,7.47973,13.6138C7.48341,13.6102,7.4871,13.6065,7.49081,13.6028C7.49452,13.5991,7.49824,13.5953,7.50198,13.5916C7.50571,13.5879,7.50946,13.5842,7.51322,13.5803C7.51698,13.5766,7.52077,13.5728,7.52456,13.569C7.52834,13.5652,7.53215,13.5614,7.53597,13.5576C7.53979,13.5538,7.54362,13.55,7.54747,13.5461C7.55132,13.5423,7.55517,13.5384,7.55905,13.5346C7.56292,13.5307,7.56681,13.5267,7.57071,13.5229C7.57461,13.519,7.57853,13.5151,7.58246,13.5112C7.58638,13.5072,7.59032,13.5033,7.59428,13.4993C7.59823,13.4953,7.60221,13.4914,7.60618,13.4874C7.61017,13.4834,7.61417,13.4794,7.61817,13.4754C7.62218,13.4714,7.62621,13.4674,7.63024,13.4633C7.63427,13.4593,7.63833,13.4552,7.64239,13.4512C7.64645,13.4472,7.65053,13.4431,7.65462,13.439C7.65871,13.4349,7.66281,13.4307,7.66693,13.4267C7.67104,13.4226,7.67518,13.4184,7.67932,13.4142C7.68346,13.4102,7.68761,13.406,7.69177,13.4018C7.69595,13.3977,7.70012,13.3935,7.70432,13.3893C7.70852,13.3851,7.71272,13.3808,7.71694,13.3767C7.72117,13.3724,7.7254,13.3682,7.72964,13.3639C7.73389,13.3597,7.73815,13.3554,7.74242,13.3512C7.74669,13.3469,7.75097,13.3426,7.75527,13.3383C7.75957,13.334,7.76388,13.3297,7.76821,13.3254C7.77253,13.3211,7.77687,13.3168,7.78122,13.3123C7.78557,13.308,7.78992,13.3037,7.7943,13.2993C7.79868,13.2949,7.80306,13.2905,7.80746,13.2862C7.81186,13.2818,7.81627,13.2773,7.82069,13.2729C7.82512,13.2685,7.82956,13.264,7.83401,13.2596C7.83845,13.2552,7.84292,13.2507,7.84739,13.2462C7.85187,13.2418,7.85635,13.2372,7.86085,13.2328C7.86535,13.2283,7.86986,13.2238,7.87438,13.2192C7.87891,13.2147,7.88344,13.2102,7.88799,13.2056C7.89254,13.2011,7.8971,13.1965,7.90168,13.1919C7.90624,13.1873,7.91082,13.1827,7.91542,13.1782C7.92002,13.1736,7.92463,13.169,7.92925,13.1643C7.93388,13.1598,7.93851,13.1551,7.94315,13.1504C7.9478,13.1458,7.95245,13.1412,7.95712,13.1365C7.96179,13.1318,7.96648,13.1271,7.97117,13.1224C7.97586,13.1178,7.98057,13.113,7.98528,13.1083C7.99,13.1036,7.99473,13.0988,7.99947,13.0941C8.00421,13.0894,8.00896,13.0847,8.01372,13.0798C8.01849,13.0751,8.02327,13.0703,8.02805,13.0655C8.03284,13.0608,8.03763,13.0559,8.04245,13.0512C8.04726,13.0463,8.05208,13.0415,8.05692,13.0367C8.06175,13.0318,8.06659,13.027,8.07145,13.0222C8.07631,13.0173,8.08117,13.0124,8.08606,13.0075C8.09093,13.0027,8.09583,12.9978,8.10073,12.9928C8.10563,12.9879,8.11055,12.983,8.11547,12.9781C8.1204,12.9732,8.12534,12.9683,8.13028,12.9633C8.13523,12.9583,8.14019,12.9534,8.14517,12.9484C8.15013,12.9434,8.15512,12.9385,8.16011,12.9335C8.16511,12.9285,8.17011,12.9235,8.17512,12.9185C8.18014,12.9134,8.18517,12.9084,8.19021,12.9034C8.19524,12.8983,8.20029,12.8933,8.20535,12.8883C8.21041,12.8832,8.21548,12.8781,8.22057,12.873C8.22565,12.8679,8.23074,12.8628,8.23584,12.8578C8.24095,12.8527,8.24606,12.8475,8.25118,12.8424C8.25632,12.8372,8.26145,12.8322,8.2666,12.827C8.27174,12.8218,8.2769,12.8167,8.28207,12.8115C8.28724,12.8063,8.29242,12.8012,8.29761,12.796C8.3028,12.7908,8.308,12.7856,8.31321,12.7804C8.31842,12.7752,8.32364,12.7699,8.32888,12.7648C8.33411,12.7595,8.33935,12.7543,8.34461,12.749C8.34986,12.7438,8.35513,12.7385,8.3604,12.7332C8.36567,12.7279,8.37096,12.7227,8.37626,12.7173C8.38155,12.712,8.38686,12.7068,8.39217,12.7014C8.39749,12.6961,8.40282,12.6908,8.40816,12.6854C8.41349,12.6801,8.41884,12.6748,8.4242,12.6694C8.42956,12.664,8.43492,12.6587,8.4403,12.6533C8.44567,12.6479,8.45107,12.6425,8.45647,12.6371C8.46187,12.6318,8.46727,12.6263,8.47269,12.6209C8.47811,12.6155,8.48354,12.6101,8.48897,12.6046C8.49442,12.5992,8.49987,12.5938,8.50532,12.5883C8.51078,12.5828,8.51625,12.5773,8.52173,12.5718C8.52721,12.5664,8.53269,12.5609,8.53819,12.5554C8.54369,12.5499,8.5492,12.5444,8.55472,12.5388C8.56023,12.5333,8.56577,12.5278,8.5713,12.5223C8.57684,12.5168,8.58238,12.5112,8.58794,12.5057C8.5935,12.5001,8.59907,12.4945,8.60464,12.4889C8.61022,12.4833,8.61581,12.4778,8.6214,12.4722C8.627,12.4666,8.6326,12.461,8.63822,12.4553C8.64383,12.4498,8.64946,12.4442,8.65509,12.4385C8.66072,12.4328,8.66637,12.4272,8.67202,12.4216C8.67767,12.4159,8.68333,12.4103,8.689,12.4046C8.69467,12.3989,8.70036,12.3933,8.70604,12.3876C8.71173,12.3818,8.71743,12.3762,8.72314,12.3704C8.72885,12.3647,8.73457,12.359,8.74029,12.3533C8.74603,12.3476,8.75176,12.3418,8.7575,12.3361C8.76325,12.3303,8.769,12.3246,8.77477,12.3188C8.78053,12.3131,8.7863,12.3073,8.79208,12.3015C8.79787,12.2958,8.80366,12.2899,8.80945,12.2842C8.81525,12.2783,8.82106,12.2725,8.82687,12.2668C8.8327,12.2609,8.83852,12.2551,8.84436,12.2493C8.85019,12.2434,8.85603,12.2376,8.86189,12.2317C8.86774,12.2258,8.8736,12.22,8.87947,12.2141C8.88534,12.2083,8.89122,12.2023,8.89711,12.1965C8.903,12.1906,8.90889,12.1847,8.9148,12.1788C8.92071,12.1729,8.92662,12.167,8.93254,12.1611C8.93847,12.1552,8.94439,12.1492,8.95033,12.1433C8.95627,12.1373,8.96222,12.1313,8.96817,12.1254C8.97413,12.1194,8.9801,12.1135,8.98607,12.1075C8.99204,12.1016,8.99802,12.0956,9.00402,12.0896C9.01001,12.0836,9.016,12.0776,9.02201,12.0716C9.02802,12.0656,9.03403,12.0596,9.04006,12.0535C9.04607,12.0475,9.05211,12.0415,9.05815,12.0354C9.06419,12.0294,9.07023,12.0233,9.07629,12.0173C9.08235,12.0113,9.08841,12.0052,9.09448,11.9991C9.10056,11.993,9.10663,11.9869,9.11272,11.9808C9.11881,11.9748,9.12491,11.9687,9.13101,11.9626C9.13712,11.9565,9.14322,11.9503,9.14935,11.9443C9.15547,11.9381,9.1616,11.932,9.16775,11.9258C9.17383,11.9198,9.18,11.9136,9.18617,11.9074C9.19233,11.9012,9.1985,11.8951,9.20467,11.8889C9.21083,11.8828,9.217,11.8766,9.22317,11.8704C9.22933,11.8643,9.2355,11.8581,9.24175,11.8518C9.24792,11.8457,9.25417,11.8394,9.26033,11.8333C9.26658,11.827,9.27275,11.8208,9.279,11.8146C9.28525,11.8083,9.2915,11.8021,9.29775,11.7958C9.304,11.7897,9.31025,11.7834,9.3165,11.7771C9.32275,11.7708,9.329,11.7646,9.33525,11.7583C9.3415,11.7521,9.34783,11.7458,9.35408,11.7395C9.36042,11.7332,9.36667,11.7269,9.373,11.7206C9.37925,11.7143,9.38558,11.708,9.39192,11.7017C9.39825,11.6953,9.40458,11.689,9.41092,11.6827C9.41725,11.6763,9.42358,11.67,9.42992,11.6637C9.43625,11.6573,9.44258,11.651,9.44892,11.6447C9.45533,11.6383,9.46167,11.6319,9.46808,11.6255C9.47442,11.6192,9.48083,11.6128,9.48717,11.6064C9.49358,11.6,9.5,11.5936,9.50633,11.5872C9.51275,11.5808,9.51917,11.5744,9.52558,11.568C9.532,11.5616,9.53842,11.5552,9.54483,11.5487C9.55125,11.5423,9.55775,11.5358,9.56417,11.5294C9.57058,11.523,9.57708,11.5166,9.5835,11.5101C9.58992,11.5037,9.59642,11.4972,9.60292,11.4907C9.60933,11.4843,9.61583,11.4778,9.62233,11.4713C9.62875,11.4648,9.63525,11.4583,9.64175,11.4518C9.64825,11.4453,9.65475,11.4388,9.66125,11.4323C9.66775,11.4258,9.67425,11.4193,9.68083,11.4128C9.68733,11.4062,9.69383,11.3998,9.70042,11.3932C9.70692,11.3867,9.71342,11.3802,9.72,11.3736C9.72658,11.3671,9.73308,11.3605,9.73967,11.3539C9.74617,11.3474,9.75275,11.3408,9.75933,11.3342C9.76592,11.3277,9.7725,11.3211,9.77908,11.3145C9.78567,11.3079,9.79225,11.3013,9.79883,11.2948C9.80542,11.2882,9.812,11.2816,9.81867,11.275C9.82525,11.2683,9.83183,11.2618,9.8385,11.2552C9.84508,11.2485,9.85167,11.2419,9.85833,11.2353C9.865,11.2287,9.87158,11.222,9.87825,11.2153C9.88492,11.2088,9.8915,11.2021,9.89817,11.1954C9.90483,11.1888,9.9115,11.1821,9.91817,11.1754C9.92483,11.1688,9.9315,11.1621,9.93817,11.1554C9.94483,11.1488,9.9515,11.1421,9.95817,11.1354C9.96492,11.1287,9.97158,11.122,9.97825,11.1153C9.985,11.1086,9.99167,11.1019,9.99842,11.0952C10.0051,11.0885,10.0118,11.0818,10.0185,11.0751C10.0252,11.0683,10.032,11.0616,10.0387,11.0549C10.0454,11.0482,10.0522,11.0414,10.0589,11.0347C10.0657,11.0279,10.0724,11.0212,10.0792,11.0144C10.0859,11.0077,10.0927,11.0009,10.0994,10.9942C10.1062,10.9874,10.1129,10.9807,10.1198,10.9739C10.1265,10.9671,10.1332,10.9603,10.14,10.9536C10.1468,10.9468,10.1536,10.94,10.1604,10.9332C10.1672,10.9264,10.174,10.9196,10.1808,10.9128C10.1876,10.906,10.1944,10.8992,10.2013,10.8924C10.208,10.8856,10.2148,10.8788,10.2217,10.8719C10.2285,10.8651,10.2353,10.8583,10.2422,10.8514C10.249,10.8446,10.2558,10.8378,10.2627,10.8309C10.2695,10.8241,10.2763,10.8173,10.2832,10.8104C10.2901,10.8036,10.2969,10.7967,10.3038,10.7898C10.3106,10.783,10.3175,10.7761,10.3243,10.7693C10.3312,10.7623,10.3381,10.7555,10.345,10.7486C10.3518,10.7418,10.3587,10.7348,10.3656,10.728C10.3725,10.7211,10.3794,10.7142,10.3862,10.7073C10.3932,10.7004,10.4001,10.6935,10.407,10.6866C10.4139,10.6797,10.4208,10.6728,10.4277,10.6658C10.4347,10.659,10.4416,10.6521,10.4485,10.6451C10.4554,10.6382,10.4623,10.6313,10.4693,10.6243C10.4762,10.6174,10.4831,10.6105,10.4901,10.6035C10.497,10.5966,10.5039,10.5897,10.5109,10.5828C10.5178,10.5758,10.5247,10.5688,10.5317,10.5618C10.5387,10.5549,10.5457,10.5479,10.5526,10.541C10.5596,10.534,10.5665,10.5271,10.5735,10.5201C10.5805,10.5131,10.5874,10.5062,10.5944,10.4992C10.6014,10.4922,10.6084,10.4852,10.6154,10.4783C10.6223,10.4713,10.6293,10.4643,10.6363,10.4573C10.6433,10.4503,10.6503,10.4433,10.6573,10.4363C10.6643,10.4293,10.6713,10.4223,10.6783,10.4153C10.6853,10.4083,10.6923,10.4012,10.6994,10.3942C10.7064,10.3872,10.7134,10.3802,10.7204,10.3732C10.7275,10.3661,10.7345,10.3591,10.7415,10.3521C10.7486,10.345,10.7556,10.338,10.7626,10.331C10.7697,10.3239,10.7767,10.3169,10.7837,10.3098C10.7907,10.3028,10.7978,10.2958,10.8049,10.2888C10.8119,10.2817,10.819,10.2746,10.826,10.2676C10.8331,10.2605,10.8402,10.2534,10.8472,10.2463C10.8542,10.2393,10.8613,10.2323,10.8684,10.2252C10.8755,10.2181,10.8826,10.211,10.8897,10.2039C10.8967,10.1969,10.9037,10.1898,10.9108,10.1828C10.9179,10.1757,10.925,10.1686,10.9321,10.1615C10.9392,10.1544,10.9463,10.1473,10.9534,10.1402C10.9605,10.1331,10.9676,10.126,10.9747,10.1189C10.9818,10.1118,10.9889,10.1048,10.996,10.0976C11.0031,10.0905,11.0102,10.0834,11.0173,10.0763C11.0244,10.0692,11.0315,10.0621,11.0387,10.0549C11.0457,10.0478,11.0529,10.0408,11.06,10.0336C11.0671,10.0265,11.0742,10.0193,11.0813,10.0122C11.0885,10.0051,11.0956,9.998,11.1028,9.99083C11.1099,9.98367,11.117,9.97658,11.1242,9.96942C11.1313,9.96233,11.1384,9.95517,11.1456,9.948C11.1528,9.94092,11.1598,9.93375,11.167,9.92658C11.1742,9.91942,11.1813,9.91233,11.1884,9.90517C11.1956,9.898,11.2028,9.89083,11.2099,9.88367C11.2171,9.8765,11.2242,9.86933,11.2314,9.86225C11.2385,9.85508,11.2457,9.84792,11.2528,9.84075C11.26,9.83358,11.2672,9.82642,11.2743,9.81925C11.2815,9.81208,11.2887,9.80492,11.2958,9.79775C11.303,9.79058,11.3102,9.78342,11.3174,9.77617C11.3246,9.769,11.3317,9.76183,11.3389,9.75467C11.3461,9.7475,11.3532,9.74033,11.3605,9.73308C11.3677,9.72592,11.3748,9.71875,11.382,9.71158C11.3892,9.70442,11.3964,9.69717,11.4036,9.69C11.4108,9.68283,11.418,9.67558,11.4252,9.66842C11.4323,9.66125,11.4396,9.654,11.4468,9.64683C11.4539,9.63967,11.4612,9.63242,11.4683,9.62525C11.4756,9.618,11.4827,9.61083,11.4899,9.60367C11.4972,9.59642,11.5043,9.58925,11.5116,9.582C11.5188,9.57483,11.526,9.56758,11.5332,9.56042C11.5404,9.55317,11.5476,9.546,11.5548,9.53875C11.5621,9.53158,11.5693,9.52433,11.5765,9.51708C11.5837,9.50992,11.5909,9.50267,11.5981,9.4955C11.6053,9.48825,11.6126,9.481,11.6198,9.47383C11.627,9.46658,11.6342,9.45933,11.6414,9.45217C11.6487,9.44492,11.6559,9.43767,11.6631,9.4305C11.6703,9.42325,11.6776,9.416,11.6848,9.40883C11.692,9.40158,11.6992,9.39433,11.7065,9.38708C11.7137,9.37992,11.7209,9.37267,11.7282,9.36542C11.7354,9.35817,11.7426,9.351,11.7498,9.34375C11.7571,9.3365,11.7643,9.32925,11.7716,9.32208C11.7788,9.31483,11.786,9.30758,11.7933,9.30033C11.8005,9.29308,11.8077,9.28583,11.815,9.27867C11.8222,9.27142,11.8294,9.26417,11.8367,9.25692C11.8439,9.24967,11.8512,9.24242,11.8584,9.23517C11.8657,9.228,11.8728,9.22075,11.8801,9.2135C11.8873,9.20625,11.8946,9.199,11.9018,9.19175C11.9091,9.1845,11.9163,9.17725,11.9236,9.17C11.9308,9.16279,11.938,9.15555,11.9452,9.14831C11.9525,9.14107,11.9598,9.13383,11.967,9.12658C11.9742,9.11933,11.9815,9.11209,11.9887,9.10485C11.996,9.09761,12.0033,9.09036,12.0105,9.08312C12.0177,9.07588,12.025,9.06862,12.0322,9.06138C12.0394,9.05414,12.0467,9.04689,12.0539,9.03965C12.0612,9.03241,12.0684,9.02516,12.0757,9.01792C12.0829,9.01067,12.0902,9.00343,12.0974,8.99618C12.1047,8.98893,12.1119,8.98169,12.1192,8.97444C12.1264,8.9672,12.1337,8.95996,12.1409,8.95271C12.1481,8.94547,12.1553,8.93823,12.1626,8.93097C12.1698,8.92373,12.1771,8.91649,12.1843,8.90925C12.1916,8.902,12.1988,8.89476,12.2061,8.88752C12.2133,8.88028,12.2206,8.87303,12.2278,8.86578C12.2351,8.85854,12.2423,8.8513,12.2495,8.84406C12.2568,8.83682,12.264,8.82958,12.2712,8.82233C12.2785,8.8151,12.2857,8.80786,12.293,8.80062C12.3003,8.79338,12.3074,8.78614,12.3147,8.7789C12.3219,8.77166,12.3292,8.76443,12.3364,8.75718C12.3437,8.74995,12.3509,8.74271,12.3581,8.73547C12.3653,8.72824,12.3726,8.72101,12.3798,8.71377C12.3871,8.70653,12.3942,8.6993,12.4015,8.69207C12.4088,8.68483,12.416,8.67761,12.4233,8.67038C12.4304,8.66314,12.4377,8.65591,12.4449,8.64868C12.4522,8.64145,12.4593,8.63422,12.4666,8.627C12.4738,8.61977,12.4811,8.61254,12.4882,8.60532C12.4955,8.59809,12.5028,8.59087,12.5099,8.58364C12.5172,8.57643,12.5244,8.5692,12.5316,8.56198C12.5388,8.55476,12.5461,8.54753,12.5532,8.54032C12.5605,8.5331,12.5677,8.52588,12.5749,8.51867C12.5822,8.51145,12.5893,8.50423,12.5966,8.49702C12.6038,8.48981,12.611,8.48259,12.6182,8.47538C12.6254,8.46817,12.6327,8.46097,12.6398,8.45376C12.6471,8.44655,12.6542,8.43934,12.6614,8.43213C12.6687,8.42493,12.6758,8.41772,12.6831,8.41053C12.6902,8.40333,12.6975,8.39612,12.7047,8.38893C12.7118,8.38173,12.7191,8.37453,12.7262,8.36733C12.7334,8.36013,12.7407,8.35294,12.7478,8.34575C12.755,8.33856,12.7622,8.33137,12.7694,8.32417C12.7766,8.31698,12.7838,8.3098,12.791,8.30262C12.7982,8.29543,12.8053,8.28824,12.8125,8.28107C12.8197,8.27388,12.8269,8.2667,12.8341,8.25953C12.8412,8.25235,12.8484,8.24517,12.8556,8.238C12.8628,8.23083,12.8699,8.22365,12.8771,8.21648C12.8842,8.20931,12.8914,8.20214,12.8986,8.19497C12.9058,8.18781,12.9129,8.18065,12.9201,8.17348C12.9272,8.16632,12.9344,8.15917,12.9416,8.15201C12.9488,8.14485,12.9559,8.13769,12.9631,8.13054C12.9702,8.12339,12.9773,8.11624,12.9845,8.10909C12.9917,8.10194,12.9988,8.0948,13.0059,8.08766C13.0131,8.08051,13.0202,8.07337,13.0273,8.06623C13.0345,8.05909,13.0417,8.05196,13.0487,8.04483C13.0559,8.03769,13.063,8.03056,13.0702,8.02343C13.0772,8.0163,13.0844,8.00918,13.0915,8.00205C13.0987,7.99493,13.1058,7.98781,13.1129,7.98069C13.12,7.97357,13.1272,7.96646,13.1343,7.95934C13.1413,7.95223,13.1485,7.94512,13.1556,7.93801C13.1627,7.93091,13.1698,7.9238,13.1769,7.9167C13.184,7.9096,13.1911,7.9025,13.1982,7.8954C13.2052,7.88831,13.2124,7.88121,13.2195,7.87413C13.2266,7.86703,13.2337,7.85994,13.2407,7.85286C13.2478,7.84578,13.2549,7.83869,13.262,7.83162C13.2691,7.82453,13.2762,7.81746,13.2832,7.81039C13.2903,7.80332,13.2973,7.79625,13.3044,7.78918C13.3115,7.78212,13.3185,7.77505,13.3256,7.76799C13.3327,7.76093,13.3398,7.75388,13.3468,7.74683C13.3538,7.73978,13.3608,7.73273,13.3679,7.72568C13.375,7.71863,13.382,7.71158,13.3891,7.70454C13.3961,7.69751,13.4031,7.69047,13.4102,7.68343C13.4172,7.6764,13.4243,7.66937,13.4313,7.66235C13.4383,7.65532,13.4453,7.6483,13.4523,7.64128C13.4593,7.63426,13.4663,7.62724,13.4733,7.62023C13.4803,7.61322,13.4874,7.60621,13.4944,7.59921C13.5014,7.5922,13.5084,7.5852,13.5154,7.57821C13.5224,7.57121,13.5294,7.56422,13.5363,7.55723C13.5433,7.55023,13.5503,7.54325,13.5573,7.53627C13.5643,7.52928,13.5713,7.52231,13.5783,7.51533C13.5853,7.50836,13.5922,7.50138,13.5992,7.49442C13.6062,7.48745,13.6131,7.48049,13.6201,7.47353C13.627,7.46658,13.634,7.45962,13.6409,7.45267C13.6478,7.44572,13.6548,7.43877,13.6618,7.43183C13.6687,7.42488,13.6757,7.41794,13.6826,7.41101C13.6895,7.40408,13.6964,7.39714,13.7033,7.39022C13.7103,7.38329,13.7172,7.37638,13.7242,7.36946C13.7311,7.36253,13.738,7.35563,13.7449,7.34872C13.7517,7.34181,13.7587,7.3349,13.7656,7.328C13.7725,7.3211,13.7794,7.31421,13.7862,7.30732C13.7932,7.30043,13.8001,7.29353,13.8069,7.28665C13.8138,7.27977,13.8207,7.27289,13.8276,7.26602C13.8344,7.25914,13.8413,7.25228,13.8482,7.24541C13.8551,7.23855,13.8619,7.23168,13.8688,7.22483C13.8756,7.21798,13.8825,7.21112,13.8893,7.20428C13.8962,7.19743,13.903,7.19059,13.9098,7.18376C13.9167,7.17693,13.9235,7.17009,13.9303,7.16327C13.9372,7.15643,13.944,7.14962,13.9508,7.1428C13.9576,7.13598,13.9644,7.12917,13.9713,7.12236C13.978,7.11556,13.9848,7.10875,13.9917,7.10196C13.9984,7.09516,14.0052,7.08837,14.012,7.08158C14.0188,7.07479,14.0256,7.06801,14.0323,7.06123C14.0392,7.05446,14.0459,7.04768,14.0527,7.04092C14.0594,7.03415,14.0662,7.02739,14.073,7.02063C14.0798,7.01388,14.0865,7.00713,14.0933,7.00037C14.0999,6.99363,14.1067,6.98689,14.1134,6.98016C14.1202,6.97342,14.1269,6.96669,14.1336,6.95997C14.1403,6.95324,14.1471,6.94653,14.1537,6.93981C14.1605,6.93309,14.1672,6.92638,14.1739,6.91968C14.1806,6.91298,14.1873,6.90628,14.194,6.89959C14.2007,6.8929,14.2074,6.88622,14.2141,6.87953C14.2208,6.87285,14.2274,6.86618,14.2341,6.85951C14.2408,6.85284,14.2474,6.84618,14.2541,6.83952C14.2607,6.83286,14.2674,6.82621,14.274,6.81956C14.2807,6.81291,14.2873,6.80628,14.2939,6.79963C14.3006,6.793,14.3073,6.78638,14.3138,6.77975C14.3205,6.77313,14.3271,6.76651,14.3337,6.7599C14.3403,6.75328,14.3469,6.74668,14.3535,6.74008C14.3601,6.73348,14.3667,6.72688,14.3733,6.7203C14.3799,6.71371,14.3865,6.70713,14.393,6.70056C14.3996,6.69398,14.4062,6.68741,14.4128,6.68085C14.4193,6.67428,14.4258,6.66773,14.4324,6.66118C14.439,6.65462,14.4455,6.64808,14.4521,6.64154C14.4586,6.635,14.4651,6.62848,14.4717,6.62194C14.4782,6.61542,14.4847,6.6089,14.4912,6.60239C14.4977,6.59587,14.5043,6.58937,14.5107,6.58287C14.5173,6.57637,14.5237,6.56988,14.5302,6.56338C14.5367,6.5569,14.5432,6.55042,14.5497,6.54394C14.5561,6.53747,14.5626,6.531,14.5691,6.52454C14.5755,6.51808,14.582,6.51163,14.5884,6.50518C14.5948,6.49873,14.6013,6.49229,14.6077,6.48586C14.6142,6.47942,14.6206,6.47299,14.627,6.46658C14.6334,6.46015,14.6398,6.45373,14.6462,6.44733C14.6527,6.44093,14.6591,6.43453,14.6655,6.42813C14.6718,6.42173,14.6782,6.41535,14.6846,6.40897C14.691,6.40258,14.6974,6.39622,14.7037,6.38985C14.7101,6.38348,14.7165,6.37713,14.7228,6.37078C14.7292,6.36442,14.7355,6.35808,14.7418,6.35173C14.7482,6.3454,14.7545,6.33907,14.7608,6.33274C14.7672,6.32643,14.7735,6.32011,14.7798,6.31379C14.7861,6.30748,14.7924,6.30118,14.7987,6.29489C14.805,6.28859,14.8112,6.28231,14.8176,6.27603C14.8238,6.26975,14.8301,6.26348,14.8364,6.25721C14.8427,6.25094,14.8489,6.24468,14.8552,6.23843C14.8614,6.23218,14.8677,6.22594,14.8739,6.21971C14.8801,6.21348,14.8863,6.20724,14.8926,6.20103C14.8988,6.1948,14.905,6.18859,14.9112,6.18238C14.9174,6.17618,14.9236,6.16998,14.9298,6.16379C14.936,6.1576,14.9422,6.15142,14.9483,6.14524C14.9545,6.13907,14.9607,6.1329,14.9668,6.12674C14.973,6.12058,14.9792,6.11443,14.9853,6.10828C14.9914,6.10214,14.9976,6.09601,15.0037,6.08988C15.0098,6.08375,15.016,6.07763,15.0221,6.07152C15.0282,6.06541,15.0343,6.0593,15.0404,6.05321C15.0465,6.04711,15.0526,6.04103,15.0587,6.03494C15.0647,6.02886,15.0708,6.02279,15.0768,6.01673C15.0829,6.01066,15.089,6.00461,15.095,5.99856C15.1011,5.99251,15.1071,5.98647,15.1132,5.98044C15.1192,5.97441,15.1252,5.96838,15.1312,5.96237C15.1373,5.95635,15.1433,5.95035,15.1493,5.94435C15.1553,5.93835,15.1612,5.93236,15.1672,5.92638C15.1732,5.9204,15.1792,5.91443,15.1852,5.90846C15.1911,5.90249,15.1971,5.89653,15.203,5.89059C15.2089,5.88464,15.2149,5.8787,15.2208,5.87277C15.2267,5.86684,15.2327,5.86092,15.2386,5.855C15.2445,5.84909,15.2504,5.84318,15.2563,5.83729C15.2622,5.83139,15.2681,5.8255,15.274,5.81963C15.2798,5.81374,15.2857,5.80788,15.2916,5.80202C15.2974,5.79615,15.3033,5.7903,15.3092,5.78446C15.315,5.77861,15.3208,5.77278,15.3267,5.76695C15.3325,5.76113,15.3382,5.75531,15.3441,5.7495C15.3499,5.74369,15.3557,5.73789,15.3615,5.7321C15.3672,5.72631,15.3731,5.72053,15.3788,5.71475C15.3846,5.70898,15.3903,5.70322,15.3962,5.69747C15.4019,5.69171,15.4077,5.68597,15.4133,5.68023C15.4191,5.67449,15.4248,5.66877,15.4306,5.66305C15.4362,5.65733,15.442,5.65162,15.4477,5.64593C15.4533,5.64023,15.4591,5.63453,15.4647,5.62885C15.4704,5.62317,15.4761,5.6175,15.4818,5.61183C15.4874,5.60618,15.4931,5.60052,15.4988,5.59488C15.5043,5.58923,15.51,5.5836,15.5156,5.57798C15.5212,5.57235,15.5268,5.56674,15.5324,5.56113C15.5381,5.55553,15.5437,5.54993,15.5492,5.54435C15.5548,5.53876,15.5604,5.53318,15.566,5.52762C15.5715,5.52205,15.5771,5.51649,15.5827,5.51095C15.5882,5.5054,15.5938,5.49986,15.5992,5.49433C15.6048,5.48881,15.6103,5.48329,15.6158,5.47778C15.6213,5.47227,15.6268,5.46678,15.6323,5.46128C15.6378,5.45579,15.6433,5.45032,15.6488,5.44485C15.6488,5.44485,14.4703,4.26633,14.4703,4.26633C14.4703,4.26633,14.4703,4.26633,14.4703,4.26633ZM3.56198,10.8645C4.11037,10.3162,9.51517,4.91137,12.3152,2.11132C12.3152,2.11132,11.1367,0.932812,11.1367,0.932812C8.33663,3.73288,2.93187,9.13767,2.38352,9.686C2.38352,9.686,3.56198,10.8645,3.56198,10.8645C3.56198,10.8645,3.56198,10.8645,3.56198,10.8645ZM5.71693,13.0197C5.09139,13.6452,3.96278,14.1898,2.87583,14.5432C2.34633,14.7153,1.86659,14.8291,1.518,14.8826C1.34044,14.9098,1.22129,14.9177,1.1574,14.9167C1.12413,14.9161,1.13154,14.9134,1.16452,14.9208C1.17489,14.9232,1.32987,14.9538,1.47868,15.1027C1.47868,15.1027,0.300167,16.2812,0.300167,16.2812C0.485797,16.4668,0.703338,16.5254,0.799402,16.547C0.918068,16.5737,1.0343,16.5815,1.13036,16.5831C1.32513,16.5863,1.5467,16.5644,1.77102,16.5299C2.22619,16.46,2.79483,16.322,3.3911,16.1282C4.55568,15.7496,5.98817,15.1054,6.89545,14.1982C6.89545,14.1982,5.71693,13.0197,5.71693,13.0197C5.71693,13.0197,5.71693,13.0197,5.71693,13.0197ZM1.47868,15.1027C1.6308,15.2548,1.66057,15.414,1.6626,15.4235C1.66974,15.4566,1.66692,15.4638,1.66668,15.4297C1.66622,15.3642,1.67527,15.2429,1.70427,15.0629C1.76118,14.7097,1.87932,14.2244,2.05463,13.6909C2.41532,12.5931,2.96028,11.4662,3.56198,10.8645C3.56198,10.8645,2.38352,9.686,2.38352,9.686C1.49807,10.5713,0.85408,12.0055,0.471247,13.1707C0.274803,13.7685,0.132535,14.3403,0.0588154,14.7978C0.022492,15.0233,-0.0013338,15.246,0.000057871,15.4415C0.000745371,15.5378,0.0075487,15.6548,0.033272,15.7743C0.0538937,15.8701,0.111229,16.0923,0.300167,16.2812C0.300167,16.2812,1.47868,15.1027,1.47868,15.1027C1.47868,15.1027,1.47868,15.1027,1.47868,15.1027ZM14.4669,2.11469C15.0635,2.71133,15.0638,3.6728,14.4703,4.26633C14.4703,4.26633,15.6488,5.44485,15.6488,5.44485C16.8962,4.19737,16.8898,2.18065,15.6455,0.936217C15.6455,0.936217,14.4669,2.11469,14.4669,2.11469C14.4669,2.11469,14.4669,2.11469,14.4669,2.11469ZM15.6455,0.936217C14.4011,-0.308275,12.3843,-0.314725,11.1367,0.932812C11.1367,0.932812,12.3152,2.11132,12.3152,2.11132C12.9087,1.51775,13.8702,1.51803,14.4669,2.11469C14.4669,2.11469,15.6455,0.936217,15.6455,0.936217C15.6455,0.936217,15.6455,0.936217,15.6455,0.936217ZM5.0813,1.9884C5.0813,1.9884,3.63358,3.43612,3.63358,3.43612C3.63358,3.43612,4.81209,4.61462,4.81209,4.61462C4.81209,4.61462,6.25981,3.16692,6.25981,3.16692C6.25981,3.16692,5.0813,1.9884,5.0813,1.9884C5.0813,1.9884,5.0813,1.9884,5.0813,1.9884ZM10.563,2.52039C10.563,2.52039,10.0311,1.9884,10.0311,1.9884C10.0311,1.9884,8.85253,3.16691,8.85253,3.16691C8.85253,3.16691,9.3845,3.6989,9.3845,3.6989C9.3845,3.6989,10.563,2.52039,10.563,2.52039C10.563,2.52039,10.563,2.52039,10.563,2.52039ZM6.25981,3.16692C6.59954,2.82718,6.81937,2.60827,6.99997,2.45495C7.17312,2.30795,7.25467,2.2708,7.29866,2.25652C7.29866,2.25652,6.78362,0.67142,6.78362,0.67142C6.44706,0.780777,6.17333,0.97046,5.92133,1.18439C5.67678,1.392,5.40158,1.66811,5.0813,1.9884C5.0813,1.9884,6.25981,3.16692,6.25981,3.16692C6.25981,3.16692,6.25981,3.16692,6.25981,3.16692ZM10.0311,1.9884C9.71075,1.66811,9.43558,1.39199,9.191,1.18439C8.93901,0.97046,8.66528,0.780777,8.32872,0.67142C8.32872,0.67142,7.81368,2.25652,7.81368,2.25652C7.85767,2.2708,7.93922,2.30795,8.11237,2.45495C8.29297,2.60827,8.51279,2.82718,8.85253,3.16691C8.85253,3.16691,10.0311,1.9884,10.0311,1.9884C10.0311,1.9884,10.0311,1.9884,10.0311,1.9884ZM7.29866,2.25652C7.46602,2.20213,7.64632,2.20213,7.81368,2.25652C7.81368,2.25652,8.32872,0.67142,8.32872,0.67142C7.8266,0.508275,7.28573,0.508275,6.78362,0.67142C6.78362,0.67142,7.29866,2.25652,7.29866,2.25652C7.29866,2.25652,7.29866,2.25652,7.29866,2.25652ZM6.13358,7.11462C6.13358,7.11462,9.46692,10.448,9.46692,10.448C9.46692,10.448,10.6454,9.26942,10.6454,9.26942C10.6454,9.26942,7.31209,5.93612,7.31209,5.93612C7.31209,5.93612,6.13358,7.11462,6.13358,7.11462C6.13358,7.11462,6.13358,7.11462,6.13358,7.11462Z" fill="#FFFFFF" fill-opacity="1"/></g></svg>