<svg xmlns="http://www.w3.org/2000/svg" xmlns:xlink="http://www.w3.org/1999/xlink" fill="none" version="1.1" width="20" height="20" viewBox="0 0 20 20"><defs><clipPath id="master_svg0_923_15796"><rect x="0" y="0" width="20" height="20" rx="0"/></clipPath><clipPath id="master_svg1_923_15797"><rect x="0" y="1" width="18" height="18" rx="0"/></clipPath><mask id="master_svg2_923_15804" style="mask-type:alpha" maskUnits="userSpaceOnUse"><g><rect x="0.002843014895915985" y="1" width="17.997161865234375" height="18.000001907348633" rx="0" fill="#FFFFFF" fill-opacity="1"/></g></mask><linearGradient x1="0.5" y1="1" x2="0.5" y2="0" id="master_svg3_921_04997"><stop offset="0%" stop-color="#FF4F2F" stop-opacity="1"/><stop offset="100%" stop-color="#FF0F58" stop-opacity="1"/></linearGradient><mask id="master_svg4_923_15800" style="mask-type:alpha" maskUnits="userSpaceOnUse"><g><rect x="0.002843014895915985" y="1" width="17.997161865234375" height="18.000001907348633" rx="0" fill="#FFFFFF" fill-opacity="1"/></g></mask><linearGradient x1="0.5" y1="1" x2="0.5" y2="0" id="master_svg5_921_04997"><stop offset="0%" stop-color="#FF4F2F" stop-opacity="1"/><stop offset="100%" stop-color="#FF0F58" stop-opacity="1"/></linearGradient></defs><g clip-path="url(#master_svg0_923_15796)"><g><path d="M11,6.999853C11,7.35721,11.19042,7.68732,11.500073,7.86599C11.809433,8.04467,12.19057,8.04467,12.50022,7.86599C12.80958,7.68732,13.00029,7.35721,13,6.999853C13,6.642794,12.80958,6.312683,12.50022,6.134007C12.19086,5.9553312,11.809726,5.9553312,11.500073,6.134007C11.190713,6.312683,10.999999105974,6.642794,11,6.999853Z" fill="#FF0F58" fill-opacity="1"/></g><g clip-path="url(#master_svg1_923_15797)"><g><g mask="url(#master_svg2_923_15804)"><g><path d="M17.716419772708417,1.7545104999999999C17.661519772708417,1.5191605,17.477419772708416,1.3355595,17.241819772708418,1.2805024999999999C13.772019772708417,0.48418950000000005,9.987159772708416,1.4317315,7.290189772708416,4.1257325C6.910039772708416,4.5059325,6.559469772708416,4.9144825,6.241539772708416,5.3476125C6.151409772708416,5.4702525,6.022489772708416,5.5550825,5.874879772708416,5.5914625C4.4659497727084165,5.9400025,3.108829772708416,6.6751125,1.981879772708416,7.8008225C1.477540772708416,8.3036625,1.038493772708416,8.8676925,0.674907572708416,9.4797025C0.366911772708416,9.9995525,0.8949047727084161,10.6125025,1.461928772708416,10.4031425C2.356819772708416,10.0728025,3.323859772708416,9.9104625,4.320469772708416,9.9097625C4.3065097727084165,9.9945925,4.286639772708416,10.0784725,4.274579772708416,10.1633025C4.9740697727084155,10.9763925,5.703609772708416,11.7632125,6.462239772708416,12.5220125C7.221589772708416,13.2798125,8.009319772708416,14.0085125,8.823539772708417,14.7072125C8.908469772708417,14.6952125,8.992439772708416,14.6753125,9.077129772708416,14.6614125C9.076419772708416,15.6571125,8.914139772708417,16.622912499999998,8.583199772708415,17.5170125C8.373609772708416,18.0837125,8.987239772708415,18.6111125,9.507429772708416,18.3032125C10.120339772708416,17.9398125,10.685019772708417,17.5012125,11.188619772708416,16.997612500000002C12.315119772708416,15.8724125,13.051219772708416,14.5163125,13.400219772708416,13.1094125C13.436619772708417,12.9620125,13.522019772708417,12.8332125,13.644319772708416,12.7432125C14.078119772708416,12.4253125,14.486919772708417,12.0752125,14.867519772708416,11.6957125C17.564719772708415,9.0009725,18.513319772708417,5.2207225,17.716119772708417,1.7547485L17.716419772708417,1.7545104999999999ZM13.369719772708416,8.6703925C12.527019772708416,9.5120725,11.160719772708417,9.5120725,10.318099772708416,8.6703925C9.475489772708416,7.8287125,9.475489772708416,6.4641025,10.318099772708416,5.6221825C11.160719772708417,4.7805025,12.527019772708416,4.7805025,13.369719772708416,5.6221825C14.212319772708415,6.4638725,14.212319772708415,7.8287125,13.369719772708416,8.6703925Z" fill="url(#master_svg3_921_04997)" fill-opacity="1"/></g></g><g mask="url(#master_svg4_923_15800)"><g><path d="M2.777666950442791,13.346254875C2.123596950442791,13.999611875,-0.649076049557209,18.047581875,0.140310950442791,18.836091875C0.929696950442791,19.624611875,4.982136950442791,16.854521875,5.635976950442791,16.201401875000002C6.290046950442791,15.548051875,6.180286950442791,14.379571875,5.390906950442791,13.591528875C4.601516950442791,12.802776875,3.431506950442791,12.692899875,2.777666950442791,13.346254875Z" fill="url(#master_svg5_921_04997)" fill-opacity="1"/></g></g></g></g></g></svg>