<svg xmlns="http://www.w3.org/2000/svg" xmlns:xlink="http://www.w3.org/1999/xlink" fill="none" version="1.1" width="9.454545974731445" height="6.352941513061523" viewBox="0 0 9.454545974731445 6.352941513061523"><g><path d="M0.00138487,6.2594C-0.00796302,6.31546,0.0290823,6.35294,0.0844773,6.35294L3.98982,6.35294C4.04521,6.35294,4.08226,6.31546,4.09126,6.2594L4.30349,5.03569C4.31284,4.97963,4.28514,4.94215,4.22975,4.94215L1.84777,4.94215C1.82007,4.94215,1.80172,4.92358,1.81072,4.8861L2.64199,0.093539C2.65099,0.0374856,2.6233,0,2.5679,0L1.18303,0C1.12763,0,1.09093,0.0374856,1.08159,0.093539L0.00138487,6.2594ZM7.00642,6.35294C7.06181,6.35294,7.08951,6.31546,7.11721,6.2594L9.4438,1.8967C9.47149,1.84065,9.4438,1.80316,9.37905,1.80316L7.99418,1.80316C7.92944,1.80316,7.87404,1.82173,7.84634,1.8967L6.7014,4.39108L6.68305,4.39108L6.38773,1.8967C6.37838,1.82208,6.34168,1.80316,6.27694,1.80316L4.94746,1.80316C4.89206,1.80316,4.85502,1.84065,4.86437,1.8967L5.65825,6.2594C5.66759,6.31546,5.70429,6.35294,5.75969,6.35294L7.00607,6.35294L7.00642,6.35294Z" fill="#D4F66B" fill-opacity="1"/></g></svg>