<svg xmlns="http://www.w3.org/2000/svg" xmlns:xlink="http://www.w3.org/1999/xlink" fill="none" version="1.1" width="100" height="44" viewBox="0 0 100 44"><defs><clipPath id="master_svg0_331_03102"><rect x="0" y="0" width="100" height="44" rx="0"/></clipPath></defs><g clip-path="url(#master_svg0_331_03102)"><g><path d="M47.9409,12L43.4911,12.555556L43.4911,23.4444Q43.4911,25.1384,44.1477,26.6888Q44.7811,28.1847,45.9348,29.337Q47.0885,30.4893,48.5862,31.122Q50.1385,31.7778,51.8345,31.7778L51.8345,27.3333Q51.0408,27.3333,50.3196,27.0286Q49.6213,26.7336,49.0813,26.1943Q48.5413,25.655,48.2459,24.9575Q47.9409,24.237099999999998,47.9409,23.4444L47.9409,19.55556L51.8345,19.55556L51.8345,15.11111L47.9409,15.11111L47.9409,12ZM12.9129,30.1111L17.0052,22.2708L17.688,31.7156L22.1262,31.3955L20.8647,13.94444L16.333,13.94444L11.0631,24.0409L5.79322,13.94444L1.26153,13.94444L4.24367e-7,31.3955L4.43825,31.7156L5.12101,22.2708L9.21332,30.1111L12.9129,30.1111ZM29.2295,31.3442Q30.7818,32,32.4778,32Q34.5133,32,36.3756,31.2132Q38.1605,30.4592,39.5385,29.0899L35.9747,26.3215Q35.3686,26.813000000000002,34.6422,27.1199Q33.6109,27.5556,32.4778,27.5556Q31.6842,27.5556,30.9629,27.2509Q30.2646,26.9558,29.7246,26.4165Q29.1847,25.877200000000002,28.8893,25.1797Q28.8515,25.090400000000002,28.8183,25L40.8212,25L40.8212,22.3333Q40.8212,20.62963,40.1554,19.10227Q39.5127,17.627760000000002,38.3364,16.51194Q37.1809,15.41573,35.6758,14.82276Q34.1516,14.22222,32.4778,14.22222Q30.804,14.22222,29.2798,14.82276Q27.7748,15.41573,26.6192,16.51194Q25.4429,17.627760000000002,24.8002,19.10227Q24.1344,20.62963,24.1344,22.3333L24.1344,23.6667Q24.1344,25.360599999999998,24.791,26.911099999999998Q25.4245,28.4069,26.5781,29.5592Q27.7318,30.7115,29.2295,31.3442ZM69.0775,15.11111L61.9578,15.11111Q60.2618,15.11111,58.7095,15.7669Q57.2118,16.3996,56.0581,17.55189Q54.9044,18.70418,54.271,20.200049999999997Q53.6144,21.75051,53.6144,23.4444Q53.6144,25.1384,54.271,26.6888Q54.9044,28.1847,56.0581,29.337Q57.2118,30.4893,58.7095,31.122Q60.2618,31.7778,61.9578,31.7778L69.0775,31.7778L69.0775,15.11111ZM81.5369,15.11111L88.6566,15.11111Q90.3526,15.11111,91.9049,15.7669Q93.4026,16.3996,94.5563,17.55189Q95.71,18.70418,96.3434,20.200049999999997Q97,21.75051,97,23.4444Q97,25.1384,96.3434,26.6888Q95.71,28.1847,94.5563,29.337Q93.4026,30.4893,91.9049,31.122Q90.3526,31.7778,88.6566,31.7778L81.5369,31.7778L81.5369,15.11111ZM72.7486,15.22222L77.8658,15.22222L77.8658,31.6667L72.7486,31.6667L72.7486,15.22222ZM36.0755,20.8764Q36.1023,20.93777,36.1266,21L28.829,21Q28.8534,20.93777,28.8801,20.8764Q29.1623,20.22907,29.6836,19.73454Q30.2121,19.23317,30.9126,18.957160000000002Q31.65,18.66667,32.4778,18.66667Q33.3056,18.66667,34.043,18.957160000000002Q34.7435,19.23317,35.272,19.73454Q35.7933,20.22907,36.0755,20.8764ZM61.9578,27.3333L64.6277,27.3333L64.6277,19.55556L61.9578,19.55556Q61.1641,19.55556,60.4429,19.86025Q59.7446,20.15526,59.2046,20.694580000000002Q58.6646,21.2339,58.3693,21.93139Q58.0642,22.6518,58.0642,23.4444Q58.0642,24.237099999999998,58.3693,24.9575Q58.6646,25.655,59.2046,26.1943Q59.7446,26.7336,60.4429,27.0286Q61.1642,27.3333,61.9578,27.3333ZM88.6566,27.3333L85.9867,27.3333L85.9867,19.55556L88.6566,19.55556Q89.4502,19.55556,90.1715,19.86025Q90.8698,20.15526,91.4098,20.694580000000002Q91.9498,21.2339,92.2451,21.93139Q92.5502,22.6518,92.5502,23.4444Q92.5502,24.237099999999998,92.2451,24.9575Q91.9498,25.655,91.4098,26.1943Q90.8698,26.7336,90.1715,27.0286Q89.4502,27.3333,88.6566,27.3333Z" fill-rule="evenodd" fill="#FFFFFF" fill-opacity="1"/></g></g></svg>