<svg xmlns="http://www.w3.org/2000/svg" xmlns:xlink="http://www.w3.org/1999/xlink" fill="none" version="1.1" width="20" height="20" viewBox="0 0 20 20"><defs><clipPath id="master_svg0_987_14618"><rect x="6.315789699554443" y="5.964911937713623" width="7.368420600891113" height="8.421051979064941" rx="0"/></clipPath><mask id="master_svg1_987_14621" style="mask-type:alpha" maskUnits="userSpaceOnUse"><g><rect x="6.315789699554443" y="5.966396316885948" width="7.368420600891113" height="8.418695449829102" rx="0" fill="#FFFFFF" fill-opacity="1"/></g></mask></defs><g><g><ellipse cx="10" cy="10" rx="10" ry="10" fill="#1F232E" fill-opacity="1"/></g><g clip-path="url(#master_svg0_987_14618)"><g><g mask="url(#master_svg1_987_14621)"><g><path d="M13.507929699554444,7.940333191885948L10.174939699554443,6.016901191885948C10.069689699554443,5.946922991885948,9.929389699554443,5.946922991885948,9.824139699554443,6.016901191885948L6.491242699554443,7.940333191885948C6.385991599554443,8.010303191885948,6.315789699554443,8.11522319188595,6.315789699554443,8.255073191885948L6.315789699554443,12.101933191885948C6.315789699554443,12.241783191885947,6.385991599554443,12.346703191885947,6.491242699554443,12.416683191885948L9.824239699554443,14.340103191885948C9.894439699554443,14.375043191885949,9.929489699554443,14.375043191885949,9.999689699554443,14.375043191885949C10.069889699554444,14.375043191885949,10.104939699554443,14.375043191885949,10.175149699554444,14.340103191885948L13.508139699554444,12.416683191885948C13.613389699554443,12.346703191885947,13.683589699554442,12.241783191885947,13.683589699554442,12.101933191885948L13.683589699554442,8.255183191885948C13.683589699554442,8.115323191885949,13.613389699554443,8.010303191885948,13.508139699554444,7.940433191885948L13.507929699554444,7.940333191885948ZM12.981679699554444,11.892203191885947L9.999489699554443,13.605793191885947L7.0173966995544435,11.892203191885947L7.0173966995544435,8.465013191885948L9.999589699554443,6.751314191885948L12.981779699554444,8.464913191885948L12.981779699554444,11.892103191885948L12.981679699554444,11.892203191885947Z" fill="#FFFFFF" fill-opacity="1"/></g></g></g><g><path d="M8.947108808929443,9.934405312713624C8.806808808929443,9.794551312713622,8.596305808929444,9.794551312713622,8.456004808929443,9.934405312713624C8.315600808929444,10.074256312713622,8.315600808929444,10.284086312713622,8.456004808929443,10.424046312713623L9.333064808929443,11.298316312713624C9.403271808929443,11.368296312713623,9.508521808929444,11.403226312713624,9.578621808929443,11.403226312713624C9.648721808929443,11.403226312713624,9.754071808929444,11.368296312713623,9.824171808929444,11.298316312713624L11.578391808929442,9.549679312713623C11.718691808929442,9.409825312713624,11.718691808929442,9.199993312713623,11.578391808929442,9.060036312713622C11.438091808929443,8.920182812713623,11.227591808929443,8.920182812713623,11.087291808929443,9.060036312713622L9.578721808929444,10.563796312713624L8.947211808929444,9.934303312713624L8.947108808929443,9.934405312713624Z" fill="#FFFFFF" fill-opacity="1"/></g></g></g></svg>