<svg xmlns="http://www.w3.org/2000/svg" xmlns:xlink="http://www.w3.org/1999/xlink" fill="none" version="1.1" width="71" height="52" viewBox="0 0 71 52"><defs><clipPath id="master_svg0_331_06853"><rect x="23.5" y="0" width="24" height="24" rx="0"/></clipPath></defs><g><g clip-path="url(#master_svg0_331_06853)"><g><path d="M36.20711,2.2928928807907103C35.81658,1.9023688807907104,35.18342,1.9023688807907104,34.79289,2.2928928807907103C34.79289,2.2928928807907103,31.79289,5.29288988079071,31.79289,5.29288988079071C31.40237,5.68341988079071,31.40237,6.3165798807907105,31.79289,6.707109880790711C32.18342,7.09762988079071,32.81658,7.09762988079071,33.20711,6.707109880790711C33.20711,6.707109880790711,34.5,5.414209880790711,34.5,5.414209880790711C34.5,5.414209880790711,34.5,10.99999988079071,34.5,10.99999988079071C34.5,11.55228988079071,34.947720000000004,11.99999988079071,35.5,11.99999988079071C36.052279999999996,11.99999988079071,36.5,11.55228988079071,36.5,10.99999988079071C36.5,10.99999988079071,36.5,5.414209880790711,36.5,5.414209880790711C36.5,5.414209880790711,37.7929,6.707109880790711,37.7929,6.707109880790711C38.1834,7.09762988079071,38.8166,7.09762988079071,39.2071,6.707109880790711C39.5976,6.3165798807907105,39.5976,5.68341988079071,39.2071,5.29288988079071C39.2071,5.29288988079071,36.20711,2.2928928807907103,36.20711,2.2928928807907103C36.20711,2.2928928807907103,36.20711,2.2928928807907103,36.20711,2.2928928807907103ZM28.5,18.99999988079071C28.5,18.99999988079071,28.5,13.99999988079071,28.5,13.99999988079071C28.5,13.99999988079071,31.21477,13.99999988079071,31.21477,13.99999988079071C31.36965,14.53419988079071,31.645229999999998,15.12969988079071,32.13614,15.66299988079071C32.952510000000004,16.54989988079071,34.11721,16.99999988079071,35.5,16.99999988079071C36.8856,16.99999988079071,38.050399999999996,16.548199880790712,38.8674,15.66269988079071C39.3593,15.12959988079071,39.6364,14.53419988079071,39.792699999999996,13.99999988079071C39.792699999999996,13.99999988079071,42.5,13.99999988079071,42.5,13.99999988079071C42.5,13.99999988079071,42.5,18.99999988079071,42.5,18.99999988079071C42.5,18.99999988079071,28.5,18.99999988079071,28.5,18.99999988079071C28.5,18.99999988079071,28.5,18.99999988079071,28.5,18.99999988079071ZM32.09376,11.99999988079071C32.09376,11.99999988079071,27.5,11.99999988079071,27.5,11.99999988079071C26.947715,11.99999988079071,26.5,12.44769988079071,26.5,12.99999988079071C26.5,12.99999988079071,26.5,19.99999988079071,26.5,19.99999988079071C26.5,20.55229988079071,26.947716,20.99999988079071,27.5,20.99999988079071C27.5,20.99999988079071,43.5,20.99999988079071,43.5,20.99999988079071C44.0523,20.99999988079071,44.5,20.55229988079071,44.5,19.99999988079071C44.5,19.99999988079071,44.5,12.99999988079071,44.5,12.99999988079071C44.5,12.44769988079071,44.0523,11.99999988079071,43.5,11.99999988079071C43.5,11.99999988079071,38.9161,11.99999988079071,38.9161,11.99999988079071C38.4174,11.99999988079071,38.0312,12.45919988079071,37.9713,12.95419988079071C37.8649,13.83259988079071,37.3714,14.99999988079071,35.5,14.99999988079071C33.63164,14.99999988079071,33.14232,13.83639988079071,33.03902,12.958599880790711C32.98056,12.46179988079071,32.59393,11.99999988079071,32.09376,11.99999988079071C32.09376,11.99999988079071,32.09376,11.99999988079071,32.09376,11.99999988079071Z" fill-rule="evenodd" fill="#D4F66B" fill-opacity="1"/></g></g><g><path d="M5.334,46.006Q7.014,46.006,7.798,44.452L8.806,45.04Q8.372,46.034,7.462,46.594Q6.552,47.153999999999996,5.362,47.153999999999996Q4.06,47.153999999999996,2.996,46.482Q1.932,45.81,1.316,44.606Q0.7,43.402,0.7,41.862Q0.7,40.322,1.316,39.118Q1.932,37.914,2.996,37.249Q4.06,36.584,5.362,36.584Q6.552,36.584,7.462,37.144Q8.372,37.704,8.806,38.698L7.798,39.286Q7.014,37.732,5.334,37.732Q4.354,37.732,3.598,38.25Q2.842,38.768,2.429,39.706Q2.016,40.644,2.016,41.862Q2.016,43.08,2.429,44.025Q2.842,44.97,3.598,45.488Q4.354,46.006,5.334,46.006ZM13.706,39.566Q14.84,39.566,15.554,40.336Q16.268,41.106,16.268,42.519999999999996L16.268,47L15.078,47L15.078,42.856Q15.078,41.82,14.665,41.26Q14.252,40.7,13.44,40.7Q12.908,40.7,12.439,40.945Q11.97,41.19,11.676,41.673Q11.382,42.156,11.382,42.87L11.382,47L10.192,47L10.192,36.346000000000004L11.382,36.346000000000004L11.382,40.826Q11.76,40.21,12.362,39.888Q12.964,39.566,13.706,39.566ZM17.892,43.36Q17.892,42.268,18.375,41.4Q18.858,40.532,19.656,40.049Q20.454,39.566,21.378,39.566Q22.302,39.566,23.1,40.042Q23.898,40.518,24.374,41.385999999999996Q24.85,42.254,24.85,43.36Q24.85,44.466,24.374,45.327Q23.898,46.188,23.1,46.671Q22.302,47.153999999999996,21.378,47.153999999999996Q20.454,47.153999999999996,19.649,46.671Q18.844,46.188,18.368,45.327Q17.892,44.466,17.892,43.36ZM19.152,43.36Q19.152,44.186,19.446,44.788Q19.74,45.39,20.244,45.712Q20.748,46.034,21.378,46.034Q22.008,46.034,22.512,45.712Q23.016,45.39,23.303,44.788Q23.59,44.186,23.59,43.36Q23.59,42.534,23.303,41.932Q23.016,41.33,22.512,41.007999999999996Q22.008,40.686,21.378,40.686Q20.748,40.686,20.244,41.007999999999996Q19.74,41.33,19.446,41.932Q19.152,42.534,19.152,43.36ZM26.166,43.36Q26.166,42.268,26.649,41.4Q27.132,40.532,27.93,40.049Q28.728,39.566,29.652,39.566Q30.576,39.566,31.374,40.042Q32.172,40.518,32.648,41.385999999999996Q33.124,42.254,33.124,43.36Q33.124,44.466,32.648,45.327Q32.172,46.188,31.374,46.671Q30.576,47.153999999999996,29.652,47.153999999999996Q28.728,47.153999999999996,27.923,46.671Q27.118,46.188,26.642,45.327Q26.166,44.466,26.166,43.36ZM27.426,43.36Q27.426,44.186,27.72,44.788Q28.014,45.39,28.518,45.712Q29.022,46.034,29.652,46.034Q30.282,46.034,30.786,45.712Q31.29,45.39,31.577,44.788Q31.864,44.186,31.864,43.36Q31.864,42.534,31.577,41.932Q31.29,41.33,30.786,41.007999999999996Q30.282,40.686,29.652,40.686Q29.022,40.686,28.518,41.007999999999996Q28.014,41.33,27.72,41.932Q27.426,42.534,27.426,43.36ZM39.76,44.928Q39.76,45.586,39.417,46.09Q39.074,46.594,38.458,46.874Q37.842,47.153999999999996,37.044,47.153999999999996Q35.98,47.153999999999996,35.21,46.678Q34.44,46.202,34.202,45.376L35.112,44.858000000000004Q35.63,46.076,37.044,46.076Q37.73,46.076,38.122,45.796Q38.514,45.516,38.514,45.025999999999996Q38.514,44.647999999999996,38.283,44.41Q38.052,44.172,37.709,44.039Q37.366,43.906,36.75,43.724000000000004Q36.008,43.513999999999996,35.546,43.318Q35.084,43.122,34.762,42.737Q34.44,42.352000000000004,34.44,41.722Q34.44,41.064,34.797,40.574Q35.154,40.084,35.763,39.825Q36.372,39.566,37.1,39.566Q38.052,39.566,38.738,39.986Q39.424,40.406,39.662,41.134L38.752,41.652Q38.528,41.176,38.087,40.917Q37.646,40.658,37.044,40.658Q36.428,40.658,36.057,40.903Q35.686,41.147999999999996,35.686,41.61Q35.686,41.946,35.903,42.156Q36.12,42.366,36.442,42.492000000000004Q36.764,42.618,37.352,42.786Q38.122,42.996,38.598,43.199Q39.074,43.402,39.417,43.822Q39.76,44.242000000000004,39.76,44.928ZM44.254,39.566Q45.192,39.566,45.899,40.007Q46.606,40.448,46.984,41.204Q47.362,41.96,47.362,42.884Q47.362,43.275999999999996,47.306,43.598L42.07,43.598Q42.14,44.844,42.784,45.453Q43.428,46.062,44.408,46.062Q45.626,46.062,46.172,45.082L47.082,45.6Q46.802,46.342,46.039,46.748Q45.276,47.153999999999996,44.338,47.153999999999996Q43.358,47.153999999999996,42.553,46.706Q41.748,46.257999999999996,41.279,45.397Q40.81,44.536,40.81,43.332Q40.81,42.17,41.279,41.316Q41.748,40.462,42.532,40.013999999999996Q43.316,39.566,44.254,39.566ZM44.2194,40.658Q43.4326,40.658,42.8496,41.162Q42.2667,41.666,42.112,42.632L46.046,42.632Q46.046,41.694,45.5403,41.176Q45.0345,40.658,44.2194,40.658ZM55.51,37.312Q54.922,37.312,54.621,37.69Q54.32,38.068,54.32,39.019999999999996L54.32,39.72L56.21,39.72L56.21,40.742000000000004L54.32,40.742000000000004L54.32,47L53.13,47L53.13,40.742000000000004L51.87,40.742000000000004L51.87,39.72L53.13,39.72L53.13,38.992Q53.13,37.536,53.788,36.864Q54.446,36.192,55.454,36.192Q55.902,36.192,56.273,36.311Q56.644,36.43,56.868,36.612L56.392,37.564Q56,37.312,55.51,37.312ZM58.086,38.432Q57.764,38.432,57.533,38.187Q57.302,37.942,57.302,37.62Q57.302,37.298,57.533,37.053Q57.764,36.808,58.086,36.808Q58.422,36.808,58.653,37.046Q58.884,37.284,58.884,37.62Q58.884,37.942,58.646,38.187Q58.408,38.432,58.086,38.432ZM58.674,47L57.484,47L57.484,39.734L58.674,39.734L58.674,47ZM62.048,47L60.858,47L60.858,36.346000000000004L62.048,36.346000000000004L62.048,47ZM67.228,39.566Q68.166,39.566,68.873,40.007Q69.58,40.448,69.958,41.204Q70.336,41.96,70.336,42.884Q70.336,43.275999999999996,70.28,43.598L65.044,43.598Q65.114,44.844,65.758,45.453Q66.402,46.062,67.382,46.062Q68.6,46.062,69.146,45.082L70.056,45.6Q69.776,46.342,69.013,46.748Q68.25,47.153999999999996,67.312,47.153999999999996Q66.332,47.153999999999996,65.527,46.706Q64.722,46.257999999999996,64.253,45.397Q63.784,44.536,63.784,43.332Q63.784,42.17,64.253,41.316Q64.722,40.462,65.506,40.013999999999996Q66.29,39.566,67.228,39.566ZM67.1934,40.658Q66.4066,40.658,65.8236,41.162Q65.2407,41.666,65.086,42.632L69.02,42.632Q69.02,41.694,68.5143,41.176Q68.0085,40.658,67.1934,40.658Z" fill="#D4F66B" fill-opacity="1"/></g></g></svg>