<svg xmlns="http://www.w3.org/2000/svg" xmlns:xlink="http://www.w3.org/1999/xlink" fill="none" version="1.1" width="20" height="20" viewBox="0 0 20 20"><defs><clipPath id="master_svg0_987_14607"><rect x="6.315673828125" y="6.314453125" width="7.719297885894775" height="7.719297885894775" rx="0"/></clipPath><mask id="master_svg1_987_14610" style="mask-type:alpha" maskUnits="userSpaceOnUse"><g><rect x="6.315673828125" y="6.314453125" width="7.719297885894775" height="7.719297885894775" rx="0" fill="#FFFFFF" fill-opacity="1"/></g></mask></defs><g><g><g><ellipse cx="10" cy="10" rx="10" ry="10" fill="#1F232E" fill-opacity="1"/></g><g clip-path="url(#master_svg0_987_14607)"><g><g mask="url(#master_svg1_987_14610)"><g><path d="M10.166733828125,6.322265625C11.340523828125,6.322265625,12.292073828125,7.285001625,12.292073828125,8.472585625C12.292073828125,9.244605625,11.889943828125,9.921555625,11.286073828125,10.300815625C11.794733828125,10.456475625,12.266043828125,10.716835625,12.670433828124999,11.065615625C12.792363828125,11.170655625,12.806973828124999,11.355755625,12.703263828125,11.479005625C12.599453828125,11.602255625,12.416503828125,11.617145625,12.294683828124999,11.512215625C11.701333828125,10.999985625,10.946653828125001,10.719235625,10.166733828125,10.720615625C8.457903828125,10.720615625,7.038214828125,12.046335625000001,6.893981828125,13.757495625C6.878811828125,13.917395625000001,6.739106828125,14.035265625000001,6.580948828125,14.021515625C6.422676828125,14.007885625,6.304709628125,13.867915625,6.316483761125,13.707785625C6.453357828125,12.082875625,7.566803828125,10.753945625,9.047623828125,10.300925625C8.443753828125,9.921905625,8.041393828124999,9.244725625000001,8.041393828124999,8.472585625C8.041393828124999,7.285116625,8.992943828125,6.322265625,10.166733828125,6.322265625ZM13.933893828125,12.071305625L13.943623828125,12.080585625000001C13.997743828125,12.132245625,14.028533828125,12.204175625000001,14.028533828125,12.279545625C14.028533828125,12.354915625,13.997853828124999,12.426845625,13.943623828125,12.478395625000001L12.474013828124999,13.880055625C12.418423828125,13.933205625,12.344273828125,13.961955625,12.267853828125,13.959895625C12.191433828125,13.961955625,12.117273828125,13.933315624999999,12.061573828124999,13.880055625L11.217573828125001,13.075165625C11.163343828125,13.023505625,11.132663828125,12.951565625,11.132663828125,12.876205625C11.132663828125,12.800835625000001,11.163343828125,12.728895625,11.217573828125001,12.677355625L11.227313828125,12.668075625C11.338943828125,12.561555625,11.513283828125001,12.561555625,11.624913828124999,12.668075625L12.267733828125,13.281115625L13.536173828125001,12.071305625C13.647803828125,11.964785625000001,13.822143828125,11.964785625000001,13.933773828125,12.071305625L13.933893828125,12.071305625ZM10.166733828125,6.908726625C9.312993828125,6.908726625,8.620933828125,7.608815625,8.620933828125,8.472585625C8.620933828125,9.336355625,9.312993828125,10.036445624999999,10.166733828125,10.036445624999999C11.020473828124999,10.036445624999999,11.712433828125,9.336355625,11.712433828125,8.472585625C11.712433828125,7.608815625,11.020363828125,6.908726625,10.166733828125,6.908726625Z" fill="#FFFFFF" fill-opacity="1"/></g></g></g></g></g></g></svg>